<?xml version="1.0" encoding="utf-8"?>
<!-- Generator: Adobe Illustrator 27.5.0, SVG Export Plug-In . SVG Version: 6.00 Build 0)  -->
<svg version="1.1" xmlns="http://www.w3.org/2000/svg" xmlns:xlink="http://www.w3.org/1999/xlink" x="0px" y="0px"
	 viewBox="0 0 500 500" style="enable-background:new 0 0 500 500;" xml:space="preserve">
<g id="OBJECTS">
	<g>
		<path style="fill:#A0A8FB;" d="M24.757,444.858h451.599c0,0-3.147,28.906-232.759,28.906S24.757,444.858,24.757,444.858z"/>
	</g>
	<g>
		<g>
			<path style="fill:#7F85FA;" d="M458.747,183.186H241.98c-0.276,0-0.5-0.224-0.5-0.5V41.528c0-0.276,0.224-0.5,0.5-0.5h216.767
				c0.276,0,0.5,0.224,0.5,0.5v141.158C459.247,182.962,459.023,183.186,458.747,183.186z M242.48,182.186h215.767V42.028H242.48
				V182.186z"/>
		</g>
		<g>
			<path style="fill:#7F85FA;" d="M455.741,179.777H245.157c-0.276,0-0.5-0.224-0.5-0.5V44.673c0-0.276,0.224-0.5,0.5-0.5h210.584
				c0.276,0,0.5,0.224,0.5,0.5v134.604C456.241,179.553,456.017,179.777,455.741,179.777z M245.657,178.777h209.584V45.173H245.657
				V178.777z"/>
		</g>
		<g>
			<g>
				<path style="fill:#7F85FA;" d="M455.741,179.777H245.157c-0.276,0-0.5-0.224-0.5-0.5V44.673c0-0.276,0.224-0.5,0.5-0.5h210.584
					c0.276,0,0.5,0.224,0.5,0.5v134.604C456.241,179.553,456.017,179.777,455.741,179.777z M245.657,178.777h209.584V45.173H245.657
					V178.777z"/>
			</g>
			<g>
				<path style="fill:#7F85FA;" d="M455.741,157.343H245.157c-0.276,0-0.5-0.224-0.5-0.5c0-0.276,0.224-0.5,0.5-0.5h210.584
					c0.276,0,0.5,0.224,0.5,0.5C456.241,157.119,456.017,157.343,455.741,157.343z"/>
			</g>
			<g>
				<path style="fill:#7F85FA;" d="M455.741,134.909H245.157c-0.276,0-0.5-0.224-0.5-0.5c0-0.276,0.224-0.5,0.5-0.5h210.584
					c0.276,0,0.5,0.224,0.5,0.5C456.241,134.685,456.017,134.909,455.741,134.909z"/>
			</g>
			<g>
				<path style="fill:#7F85FA;" d="M455.741,112.475H245.157c-0.276,0-0.5-0.224-0.5-0.5c0-0.276,0.224-0.5,0.5-0.5h210.584
					c0.276,0,0.5,0.224,0.5,0.5C456.241,112.251,456.017,112.475,455.741,112.475z"/>
			</g>
			<g>
				<path style="fill:#7F85FA;" d="M455.741,90.041H245.157c-0.276,0-0.5-0.224-0.5-0.5c0-0.276,0.224-0.5,0.5-0.5h210.584
					c0.276,0,0.5,0.224,0.5,0.5C456.241,89.817,456.017,90.041,455.741,90.041z"/>
			</g>
			<g>
				<path style="fill:#7F85FA;" d="M455.741,67.607H245.157c-0.276,0-0.5-0.224-0.5-0.5c0-0.276,0.224-0.5,0.5-0.5h210.584
					c0.276,0,0.5,0.224,0.5,0.5C456.241,67.383,456.017,67.607,455.741,67.607z"/>
			</g>
			<g>
				<path style="fill:#7F85FA;" d="M420.644,179.777c-0.276,0-0.5-0.224-0.5-0.5V44.673c0-0.276,0.224-0.5,0.5-0.5
					c0.276,0,0.5,0.224,0.5,0.5v134.604C421.144,179.553,420.921,179.777,420.644,179.777z"/>
			</g>
			<g>
				<path style="fill:#7F85FA;" d="M385.547,179.777c-0.276,0-0.5-0.224-0.5-0.5V44.673c0-0.276,0.224-0.5,0.5-0.5
					c0.276,0,0.5,0.224,0.5,0.5v134.604C386.047,179.553,385.823,179.777,385.547,179.777z"/>
			</g>
			<g>
				<path style="fill:#7F85FA;" d="M350.449,179.777c-0.276,0-0.5-0.224-0.5-0.5V44.673c0-0.276,0.224-0.5,0.5-0.5
					c0.276,0,0.5,0.224,0.5,0.5v134.604C350.949,179.553,350.725,179.777,350.449,179.777z"/>
			</g>
			<g>
				<path style="fill:#7F85FA;" d="M315.352,179.777c-0.276,0-0.5-0.224-0.5-0.5V44.673c0-0.276,0.224-0.5,0.5-0.5
					c0.276,0,0.5,0.224,0.5,0.5v134.604C315.852,179.553,315.629,179.777,315.352,179.777z"/>
			</g>
			<g>
				<path style="fill:#7F85FA;" d="M280.255,179.777c-0.276,0-0.5-0.224-0.5-0.5V44.673c0-0.276,0.224-0.5,0.5-0.5
					c0.276,0,0.5,0.224,0.5,0.5v134.604C280.755,179.553,280.531,179.777,280.255,179.777z"/>
			</g>
		</g>
		<g>
			<g>
				<polygon style="fill:#6455E7;" points="256.167,166.315 252.896,161.401 318.954,117.422 318.954,137.112 381.384,88.121 
					381.384,109.164 434.391,72.439 437.753,77.289 375.482,120.434 375.482,100.253 313.052,149.244 313.052,128.441 				"/>
			</g>
		</g>
		<g>
			<polygon style="fill:#6455E7;" points="441.497,71.799 420.935,73.022 432.275,90.217 			"/>
		</g>
	</g>
	<g>
		<g>
			<path style="fill:#E8A03F;" d="M319.732,93.147l20.479,27.841l-15.374,11.302c-0.413-0.28-0.679-0.457-0.679-0.457
				s-2.154-2.774-3.703-2.671c-1.534,0.103-2.449,1.652-2.449,1.652s-1.077-0.93-2.877,0c-1.8,0.915-1.225,2.449-1.225,2.449
				s-1.239-1.077-2.98,0c-1.741,1.077,0,8.823,0,8.823c-5.193-0.443-8.543,5.179-9.752,7.613l-4.736,3.482l-20.479-27.841
				l23.046-16.938v-0.015l1.534-7.613l16.097-11.847L319.732,93.147z"/>
		</g>
		<g>
			<path style="fill:#222A40;" d="M331.727,445.09h-33.079l-6.212-19.49v19.49h-4.426c0,0-4.338-24.816-4.589-29.641
				c-0.236-4.825,2.951-9.826,2.951-9.826l-2.154-7.406c4.913-0.679,12.836-2.287,18.9-6.005l1.107,11.774l10.313,26.041
				C324.69,433.789,331.727,445.09,331.727,445.09z"/>
		</g>
		<g>
			<path style="fill:#E48C59;" d="M324.837,132.289c0.871,0.635,2.346,1.785,3.01,2.73c0.974,1.372-1.549,6.964-1.549,6.964
				l-16.495,15.388l-9.28,11.523c-2.198-1.549-6.684-5.061-8.675-9.28l8.823-8.808c0,0,0.162-0.428,0.502-1.107
				c1.21-2.434,4.559-8.056,9.752-7.613c0,0-1.741-7.746,0-8.823c1.741-1.077,2.98,0,2.98,0s-0.575-1.534,1.225-2.449
				c1.8-0.93,2.877,0,2.877,0s0.915-1.549,2.449-1.652c1.549-0.103,3.703,2.671,3.703,2.671S324.424,132.009,324.837,132.289z"/>
		</g>
		<g>
			<path style="fill:#6455E7;" d="M308.091,388.081c-1.372,1.608-3.083,2.966-4.972,4.131c-0.561,0.354-1.151,0.679-1.741,0.989
				c-0.457,0.236-0.915,0.457-1.372,0.664c-3.984,1.874-8.366,3.025-12.025,3.733c-0.502,0.089-0.989,0.177-1.461,0.266
				c-0.826,0.133-1.593,0.251-2.302,0.354c-2.759,0.384-4.574,0.472-4.574,0.472l-35.587-121.352l-12.571,123.861
				c-1.298,0.413-2.582,0.723-3.821,0.974c-1.269,0.251-2.523,0.428-3.718,0.546c-0.502,0.044-1.003,0.089-1.49,0.103
				c-3.836,0.221-7.229-0.221-10.018-0.9c-0.516-0.118-1.003-0.251-1.475-0.398c-0.162-0.03-0.325-0.089-0.487-0.133
				c-4.013-1.195-6.344-2.7-6.344-2.7s-6.713-153.206-7.067-165.644c-0.339-12.452,10.343-26.882,10.343-26.882
				c0.93,0.516,2.139,0.959,3.571,1.372c0.472,0.133,0.959,0.266,1.475,0.398c0.782,0.221,1.638,0.428,2.523,0.634
				c2.449,0.575,8.912-1.785,15.049-4.456c0.502-0.206,1.018-0.443,1.505-0.664c6.315-2.788,11.892-5.68,11.892-5.68
				s1.711,0.782,4.161,1.77c0.502,0.207,1.062,0.428,1.623,0.649c4.515,1.77,10.461,3.836,13.352,3.6
				c0.103-0.015,0.221-0.015,0.325-0.044c0.502-0.059,0.974-0.192,1.431-0.369c4.028-1.534,6.728-6.698,6.728-6.698L308.091,388.081
				z"/>
		</g>
		<g>
			<path style="fill:#FFFFFF;" d="M301.791,169.735c0,0-19.062,26.528-23.238,27.487c-4.161,0.959-7.51-0.546-7.51-0.546
				s-3.497,6.698-8.484,7.111c-4.987,0.398-19.136-6.02-19.136-6.02s-23.252,12.025-28.446,10.8
				c-3.261-0.782-5.872-1.461-7.569-2.405c-1.018-0.546-1.697-1.18-1.992-1.977c-0.826-2.11,0.811-9.428,0.811-9.428
				s-12.098,2.671-14.075,0c-1.992-2.671-3.836-7.112-5.341-28.298c-1.505-21.187,0.693-32.4,3.29-35.41
				c2.597-3.01,24.536-8.882,24.536-8.882l5.68-5.474l0.266,0.03l-0.266,2.567l20.67,29.39l3.137-31.797l-0.592-3.043l5.231,0.39
				c0,0,22.677,10.121,25.82,17.085c0.339,0.752,0.634,1.756,0.885,2.936c2.08,9.87,1.313,32.754,1.313,32.754l14.621-8.484
				c0.133,0.369,0.28,0.738,0.443,1.092c1.992,4.22,6.477,7.731,8.675,9.28C301.305,169.44,301.791,169.735,301.791,169.735z"/>
		</g>
		<g>
			<path style="fill:#E48C59;" d="M274.791,133.366c2.434,5.916-7.997,15.861-7.997,15.861s4.692-0.03,5.607,1.298
				c0.929,1.343,0,4.588,0,4.588c1.136,2.523-1.166,4.367-1.166,4.367c1.608,4.102-3.349,5.061-3.349,5.061s-4.441,6.934-7.997,8.07
				c-3.556,1.121-8.41,0.546-8.41,0.546l-2.715,0.679l-2.538-12.688l13.456-13.279L274.791,133.366z"/>
		</g>
		<g>
			<path style="fill:#E48C59;" d="M250.964,80.576c0.546,5.134,1.343,13.869,0.93,17.174c-0.428,3.526-4.028,9.015-6.625,12.305
				c-0.959,1.225-1.785,2.139-2.257,2.552c-1.77,1.534-5.503,1.092-8.188,0.502c-1.372-0.295-6.787-2.036-10.697-6.728
				c-0.797-0.959-1.534-2.036-2.154-3.246c-0.679-1.313-1.225-2.759-1.579-4.397c-1.829-0.059-3.63-0.679-5.075-1.785
				c-1.77-1.343-3.025-3.349-3.423-5.533c-0.28-1.49-0.162-3.084,0.487-4.456c0.649-1.387,1.844-2.538,3.305-2.98
				c0.649-0.177,1.343-0.236,2.007-0.133c0,0,3.305-11.42,6.993-15.831c0,0,18.811-6.094,25.982,9.989l0.015,0.015
				C250.757,78.688,250.86,79.558,250.964,80.576z"/>
		</g>
		<g>
			<path style="fill:#222A40;" d="M257.396,109.892l-1.121-4.928l-2.877,5.739l-7.687,1.387l-0.443-2.036
				c2.597-3.29,6.197-8.779,6.625-12.305c0.413-3.305-0.384-12.039-0.93-17.174c-0.103-1.018-0.207-1.889-0.28-2.553l-0.015-0.015
				c-11.077-11.697-20.92-8.006-20.92-8.006c-1.958,10.897-12.055,13.848-12.055,13.848c-0.664-0.103-1.357-0.044-2.007,0.133
				c-1.461,0.443-2.656,1.593-3.305,2.98c-0.649,1.372-0.767,2.965-0.487,4.456c0.398,2.184,1.652,4.19,3.423,5.533
				c1.446,1.106,3.246,1.726,5.075,1.785c0.354,1.638,0.9,3.083,1.579,4.397l-1.033,10.077c-4.234-0.929-9.192,1.8-9.192,1.8
				c-2.124-2.862-3.674-5.739-3.674-5.739l-1.638,5.739c-2.508-4.559-2.464-19.726-2.154-24.905
				c0.31-5.179,3.438-18.266,6.462-22.766c3.025-4.515,9.531-5.754,9.531-5.754s15.743-5.784,21.851-2.759
				c6.093,3.025,11.582,8.543,10.357,16.539c0,0,0.059,2.198,0.354,5.031c0.354,3.644,1.107,8.336,2.611,10.726
				C258.119,95.374,260.421,105.127,257.396,109.892z"/>
		</g>
		<g>
			<path style="fill:#222A40;" d="M243.211,112.415c-0.066,0.063-0.143,0.142-0.199,0.192c-1.77,1.535-5.503,1.092-8.188,0.502
				c-1.372-0.295-6.787-2.036-10.697-6.728c0,0,3.01,13.128,20.001,10.503C243.856,115.387,243.568,113.894,243.211,112.415z"/>
		</g>
		<g>
			<path style="fill:#E48C59;" d="M244.127,116.884c-16.991,2.625-20.001-10.503-20.001-10.503
				c-0.797-0.959-1.534-2.036-2.154-3.246l-1.033,10.077l-0.354,3.512l-0.266,2.567l20.67,29.39l4.439-25.415
				C244.885,121.166,244.514,119.024,244.127,116.884z"/>
		</g>
		<g>
			<path style="fill:#222A40;" d="M227.667,402.171c1.402,7.761,4.559,25.864,4.411,30.069c-0.207,5.4-11.42,15.92-14.223,15.064
				c-2.803-0.856-10.121-9.398-10.933-12.88c-0.679-2.862,2.42-25.111,3.556-33.034
				C214.654,402.658,220.629,403.587,227.667,402.171z"/>
		</g>
		<g>
			<g>
				<path style="fill:#7C72FA;" d="M212.455,207.933v119.213c0,24.92-0.015,49.839-0.015,74.774
					c-0.516-0.118-1.003-0.251-1.475-0.398c0-12.954,0-25.879,0.015-38.818V207.535
					C211.452,207.668,211.939,207.801,212.455,207.933z"/>
			</g>
			<g>
				<path style="fill:#7C72FA;" d="M231.533,203.448c-0.384,10.121-0.767,20.243-1.151,30.379
					c-1.18,30.747-2.346,61.51-3.511,92.257c-0.974,25.539-1.948,51.093-2.921,76.633c-0.502,0.044-1.003,0.089-1.49,0.103
					c0.472-12.01,0.93-24.02,1.387-36.044c1.165-30.747,2.331-61.51,3.512-92.257c0.9-23.474,1.785-46.933,2.67-70.407
					C230.529,203.905,231.046,203.669,231.533,203.448z"/>
			</g>
			<g>
				<path style="fill:#7C72FA;" d="M287.982,397.597c-0.502,0.089-0.989,0.177-1.461,0.266c-1.859-9.531-3.733-19.047-5.607-28.579
					c-6.094-31.057-12.202-62.129-18.295-93.187l-15.034-76.559c0.502,0.207,1.062,0.428,1.623,0.649
					c2.272,11.597,4.559,23.179,6.831,34.775c6.093,31.057,12.202,62.129,18.295,93.187L287.982,397.597z"/>
			</g>
			<g>
				<path style="fill:#7C72FA;" d="M301.378,393.2c-0.457,0.236-0.915,0.457-1.372,0.664c-1.564-7.289-3.113-14.592-4.647-21.895
					c-3.305-15.669-6.521-31.338-9.679-47.036c-3.143-15.698-6.226-31.397-9.221-47.125c-3.01-15.728-5.931-31.456-8.793-47.213
					c-1.623-8.941-3.216-17.897-4.78-26.852c0.502-0.059,0.974-0.192,1.431-0.369c1.903,10.903,3.866,21.807,5.843,32.71
					c2.877,15.743,5.828,31.485,8.852,47.198c3.01,15.713,6.108,31.426,9.28,47.11c3.157,15.698,6.403,31.367,9.723,47.036
					C299.121,382.681,300.242,387.948,301.378,393.2z"/>
			</g>
		</g>
		<g>
			<g>
				<path style="fill:#E07045;" d="M241.545,87.004c0,0-1.181,2.441-1.137,5.438c0.044,2.996,2.064,4.905,3.201,4.755
					c1.137-0.15,3.228-1.452,3.042-3.005c0,0-0.451-1.053-1.332-1.896C244.438,91.454,241.545,87.004,241.545,87.004z"/>
			</g>
			<g>
				<path style="fill:#222A40;" d="M242.252,98.064c-0.164,0-0.314-0.108-0.361-0.273c-0.056-0.2,0.061-0.407,0.26-0.462
					c1.482-0.416,2.811-1.174,3.844-2.193c0.417-0.41,0.404-1.035-0.029-1.52c-2.055-2.297-3.839-4.782-5.305-7.385
					c-0.102-0.181-0.037-0.409,0.144-0.511c0.179-0.102,0.408-0.038,0.511,0.143c1.438,2.556,3.19,4.996,5.209,7.253
					c0.703,0.786,0.702,1.859-0.003,2.554c-1.122,1.107-2.564,1.931-4.167,2.38C242.32,98.059,242.286,98.064,242.252,98.064z"/>
			</g>
			<g>
				<path style="fill:#222A40;" d="M234.799,86.186c0.084,1.419-0.848,2.629-2.083,2.702s-2.304-1.017-2.388-2.436
					c-0.084-1.419,0.848-2.629,2.082-2.702C233.646,83.676,234.715,84.767,234.799,86.186z"/>
			</g>
			<g>
				<path style="fill:#222A40;" d="M248.863,85.35c0.084,1.419-0.848,2.628-2.082,2.702c-1.234,0.073-2.304-1.017-2.388-2.436
					c-0.084-1.419,0.848-2.629,2.082-2.702C247.71,82.84,248.779,83.931,248.863,85.35z"/>
			</g>
			<g>
				<path style="fill:#222A40;" d="M232.635,78.72c-1.54,0.222-2.979,0.701-4.345,1.444c-0.246,0.134-0.443,0.472-0.5,0.736
					c-0.061,0.287-0.003,0.66,0.173,0.901c0.177,0.242,0.432,0.449,0.736,0.5c0.329,0.055,0.608-0.014,0.901-0.173
					c0.074-0.04,0.148-0.077,0.222-0.115c0.835-0.4,1.714-0.695,2.621-0.881c0.11-0.019,0.22-0.039,0.331-0.055
					c0.316-0.046,0.595-0.149,0.813-0.395c0.192-0.217,0.326-0.561,0.296-0.854C233.821,79.235,233.289,78.625,232.635,78.72z"/>
			</g>
			<g>
				<path style="fill:#222A40;" d="M244.269,78.028c1.555,0.038,3.041,0.343,4.486,0.919c0.26,0.104,0.496,0.416,0.583,0.672
					c0.094,0.277,0.082,0.655-0.065,0.915c-0.147,0.261-0.376,0.497-0.672,0.583c-0.32,0.093-0.606,0.058-0.915-0.065
					c-0.078-0.031-0.156-0.059-0.235-0.088c-0.877-0.299-1.784-0.487-2.707-0.564c-0.112-0.006-0.223-0.013-0.335-0.016
					c-0.319-0.008-0.608-0.078-0.854-0.296c-0.217-0.192-0.39-0.518-0.395-0.813C243.152,78.68,243.608,78.012,244.269,78.028z"/>
			</g>
			<g>
				<path style="fill:#FFFFFF;" d="M245.847,102.408c-0.721,1.55-2.608,4.368-6.698,3.931c-3.733-0.384-4.849-3.746-5.16-5.502
					c-0.106-0.541,0.354-1.011,0.89-0.94l10.341,1.41C245.756,101.379,246.07,101.937,245.847,102.408z"/>
			</g>
			<g>
				<path style="fill:#222A40;" d="M219.481,96.691c-0.182,0-0.342-0.133-0.37-0.319c-0.45-2.97-2.198-5.757-4.677-7.456
					c-0.171-0.117-0.214-0.351-0.098-0.521c0.117-0.171,0.35-0.214,0.521-0.098c2.647,1.814,4.514,4.791,4.994,7.962
					c0.031,0.205-0.11,0.396-0.314,0.427C219.519,96.689,219.499,96.691,219.481,96.691z"/>
			</g>
		</g>
		<g>
			<path style="fill:#E07045;" d="M229.065,91.265c-4.747,0-4.755,7.377,0,7.377C233.811,98.643,233.819,91.265,229.065,91.265z"/>
		</g>
		<g>
			<path style="fill:#222A40;" d="M244.059,277.712c-0.015,0-0.029-0.001-0.045-0.003c-0.205-0.025-0.353-0.211-0.327-0.417
				l4.704-39.103c0.011-0.089,0.053-0.17,0.118-0.23l16.531-15.232c0.152-0.14,0.39-0.13,0.529,0.021
				c0.141,0.152,0.131,0.39-0.022,0.529l-16.43,15.139l-4.688,38.966C244.409,277.572,244.247,277.712,244.059,277.712z"/>
		</g>
		<g>
			<path style="fill:#222A40;" d="M252.575,239.703c-0.145,0-0.283-0.085-0.345-0.227c-0.082-0.19,0.006-0.411,0.196-0.493
				l12.72-5.469c0.19-0.08,0.41,0.007,0.493,0.196c0.082,0.19-0.006,0.411-0.196,0.493l-12.72,5.469
				C252.674,239.693,252.624,239.703,252.575,239.703z"/>
		</g>
		<g>
			<path style="fill:#222A40;" d="M204.319,229.312c-0.122,0-0.241-0.059-0.313-0.168c-0.115-0.173-0.067-0.405,0.105-0.52
				c9.918-6.568,15.814-18.179,15.872-18.295c0.094-0.185,0.319-0.259,0.503-0.168c0.185,0.093,0.26,0.318,0.168,0.503
				c-0.06,0.118-6.045,11.908-16.129,18.585C204.462,229.292,204.39,229.312,204.319,229.312z"/>
		</g>
		<g>
			<path style="fill:#222A40;" d="M204.319,168.815c-0.154,0-0.298-0.095-0.353-0.248c-0.07-0.195,0.031-0.41,0.226-0.48
				c0.226-0.081,22.668-8.17,27.12-10.042c4.61-1.938,14.645,2.568,15.07,2.762c0.188,0.085,0.271,0.308,0.187,0.496
				c-0.087,0.189-0.307,0.272-0.497,0.187c-0.101-0.045-10.157-4.564-14.469-2.753c-4.47,1.879-26.931,9.975-27.157,10.056
				C204.404,168.808,204.361,168.815,204.319,168.815z"/>
		</g>
		<g>
			<path style="fill:#222A40;" d="M206.229,195.133c-0.171,0-0.327-0.119-0.365-0.293c-0.045-0.202,0.082-0.403,0.284-0.448
				c0.341-0.076,34.171-7.676,37.627-11.639c3.473-3.983,4.614-8.949,4.625-8.999c0.046-0.201,0.244-0.33,0.448-0.284
				c0.202,0.045,0.329,0.246,0.284,0.448c-0.048,0.21-1.195,5.202-4.793,9.328c-3.615,4.146-36.624,11.564-38.027,11.878
				C206.283,195.13,206.256,195.133,206.229,195.133z"/>
		</g>
		<g>
			<path style="fill:#222A40;" d="M211.71,166.137c-0.021,0-0.044-0.002-0.065-0.006c-0.204-0.036-0.341-0.23-0.305-0.434
				l1.29-7.372c0.036-0.204,0.234-0.338,0.434-0.305c0.204,0.036,0.341,0.23,0.305,0.434l-1.29,7.372
				C212.047,166.009,211.889,166.137,211.71,166.137z"/>
		</g>
		<g>
			<path style="fill:#222A40;" d="M271.037,170.968c-0.125,0-0.247-0.063-0.318-0.176c-0.109-0.176-0.056-0.407,0.12-0.517
				l5.746-3.587c0.174-0.108,0.406-0.057,0.517,0.119c0.109,0.176,0.056,0.407-0.12,0.517l-5.746,3.587
				C271.173,170.949,271.105,170.968,271.037,170.968z"/>
		</g>
		<g>
			<path style="fill:#222A40;" d="M271.043,197.051c-0.064,0-0.13-0.017-0.189-0.052c-0.179-0.104-0.238-0.335-0.134-0.513
				c0.031-0.054,3.172-5.454,2.221-8.024c-0.992-2.68-6.347-9.365-6.4-9.432c-0.066-0.082-0.095-0.187-0.079-0.291l2.358-15.608
				c0.031-0.205,0.223-0.346,0.427-0.314c0.205,0.031,0.346,0.222,0.315,0.427l-2.334,15.446c0.778,0.978,5.448,6.898,6.416,9.512
				c1.075,2.902-2.14,8.431-2.277,8.665C271.297,196.985,271.171,197.051,271.043,197.051z"/>
		</g>
		<g>
			<path style="fill:#222A40;" d="M227.915,205.389c-0.151,0-0.293-0.092-0.35-0.241c-0.074-0.193,0.022-0.41,0.216-0.484
				c0.17-0.065,17.076-6.577,23.405-12.906c0.146-0.146,0.385-0.146,0.531,0c0.145,0.146,0.145,0.384,0,0.53
				c-6.443,6.442-22.968,12.808-23.668,13.076C228.005,205.381,227.959,205.389,227.915,205.389z"/>
		</g>
		<g>
			<path style="fill:#222A40;" d="M272.401,155.488c-0.083,0-0.166-0.027-0.235-0.083c-1.171-0.944-4.564-1.428-4.599-1.433
				c-0.205-0.029-0.349-0.218-0.319-0.423c0.029-0.204,0.212-0.347,0.423-0.32c0.148,0.021,3.634,0.518,4.966,1.592
				c0.161,0.13,0.186,0.366,0.057,0.527C272.619,155.441,272.51,155.488,272.401,155.488z"/>
		</g>
		<g>
			<path style="fill:#222A40;" d="M271.236,159.856c-0.055,0-0.109-0.012-0.162-0.037c-1.522-0.73-3.057-0.578-3.073-0.576
				c-0.202,0.015-0.39-0.126-0.412-0.333c-0.022-0.205,0.126-0.39,0.331-0.413c0.07-0.008,1.755-0.18,3.478,0.646
				c0.187,0.089,0.266,0.313,0.176,0.5C271.509,159.777,271.375,159.856,271.236,159.856z"/>
		</g>
		<g>
			<path style="fill:#222A40;" d="M315.675,138.805c-0.156,0-0.302-0.098-0.354-0.253l-1.771-5.167
				c-0.067-0.196,0.037-0.409,0.233-0.477c0.194-0.067,0.409,0.038,0.476,0.233l1.771,5.167c0.067,0.196-0.037,0.409-0.233,0.477
				C315.756,138.799,315.715,138.805,315.675,138.805z"/>
		</g>
		<g>
			<path style="fill:#222A40;" d="M320.255,137.164c-0.151,0-0.294-0.093-0.351-0.243l-2.249-5.975
				c-0.073-0.194,0.024-0.41,0.219-0.483c0.192-0.07,0.409,0.025,0.483,0.219l2.249,5.976c0.073,0.194-0.024,0.41-0.219,0.483
				C320.344,137.156,320.299,137.164,320.255,137.164z"/>
		</g>
		<g>
			<path style="fill:#222A40;" d="M325.519,138.053c-0.01,0-0.02,0-0.03-0.001c-0.206-0.017-0.36-0.198-0.344-0.404l0.369-4.583
				c0.017-0.206,0.183-0.356,0.404-0.344c0.206,0.017,0.36,0.198,0.344,0.404l-0.369,4.583
				C325.878,137.904,325.713,138.053,325.519,138.053z"/>
		</g>
		<g>
			<path style="fill:#222A40;" d="M205.67,108.458c-0.14,0-0.274-0.079-0.339-0.213c-4.979-10.394-5.189-22.9-0.561-33.456
				c1.604-3.658,3.502-6.462,5.803-8.573c2.798-2.567,6.165-4.006,9.483-4.053c0.002,0,0.004,0,0.005,0
				c0.205,0,0.372,0.165,0.375,0.37c0.003,0.207-0.163,0.377-0.37,0.38c-3.133,0.044-6.325,1.413-8.987,3.855
				c-2.223,2.039-4.062,4.761-5.623,8.321c-4.542,10.358-4.336,22.631,0.551,32.831c0.089,0.187,0.01,0.411-0.176,0.501
				C205.78,108.446,205.725,108.458,205.67,108.458z"/>
		</g>
		<g>
			<path style="fill:#222A40;" d="M220.037,83.748c-0.731,0-1.46-0.074-2.177-0.228c-0.203-0.043-0.332-0.243-0.288-0.445
				c0.044-0.203,0.247-0.333,0.445-0.288c3.631,0.778,7.648-0.629,9.997-3.505c2.349-2.875,2.925-7.093,1.436-10.495
				c-0.083-0.189,0.003-0.411,0.193-0.494c0.188-0.083,0.41,0.003,0.494,0.193c1.601,3.653,0.98,8.182-1.542,11.271
				C226.536,82.277,223.283,83.748,220.037,83.748z"/>
		</g>
		<g>
			<path style="fill:#222A40;" d="M258.178,105.35c-0.041,0-0.082-0.006-0.122-0.021c-0.196-0.068-0.3-0.281-0.232-0.477
				c1.563-4.52,1.317-9.955-0.73-16.157c-0.982-2.972-2.272-5.891-3.522-8.714c-0.967-2.185-1.967-4.446-2.822-6.725
				c-0.072-0.194,0.026-0.41,0.22-0.483c0.197-0.07,0.41,0.026,0.483,0.219c0.847,2.259,1.842,4.509,2.805,6.685
				c1.257,2.84,2.557,5.776,3.55,8.783c2.1,6.361,2.344,11.959,0.727,16.637C258.479,105.253,258.333,105.35,258.178,105.35z"/>
		</g>
		<g>
			<path style="fill:#222A40;" d="M239.891,131.697c-3.687,0-19.137-11.609-19.797-12.106c-0.166-0.125-0.199-0.359-0.074-0.525
				c0.124-0.166,0.36-0.2,0.525-0.074c4.467,3.366,16.666,12.048,19.385,11.955c2.278-0.102,3.776-7.473,4.186-12.095
				c0.019-0.205,0.187-0.355,0.407-0.34c0.206,0.018,0.358,0.2,0.341,0.407c-0.114,1.291-1.223,12.614-4.9,12.778
				C239.94,131.696,239.916,131.697,239.891,131.697z"/>
		</g>
		<g>
			<path style="fill:#222A40;" d="M240.549,136.221c-1.595,0-2.892-1.297-2.892-2.891c0-1.594,1.297-2.892,2.892-2.892
				c1.594,0,2.891,1.297,2.891,2.892C243.44,134.925,242.143,136.221,240.549,136.221z M240.549,131.189
				c-1.181,0-2.142,0.961-2.142,2.142c0,1.181,0.961,2.141,2.142,2.141c1.181,0,2.141-0.96,2.141-2.141
				C242.69,132.15,241.73,131.189,240.549,131.189z"/>
		</g>
		<g>
			<path style="fill:#222A40;" d="M220.393,98.738c0,0,2.878,3.718,3.1,8.588c0.222,4.871-0.239,6.514-0.239,6.514l-2.315-0.629
				L220.393,98.738z"/>
		</g>
	</g>
	<g>
		<path style="fill:#DCE2FD;" d="M185.856,145.08c0,13.093-12.913,23.716-28.848,23.716c-0.84,0-1.67-0.03-2.491-0.09
			c-1.671-0.12-3.331,0.37-4.731,1.29c-5.982,3.911-13.654,4.431-13.654,4.431c0.06-0.04,0.11-0.08,0.17-0.12
			c4.271-2.971,4.311-9.172,0.29-12.483c-5.211-4.281-8.432-10.203-8.432-16.744c0-13.104,12.913-23.716,28.847-23.716
			S185.856,131.977,185.856,145.08z"/>
	</g>
	<g>
		<path style="fill:#DCE2FD;" d="M332.245,54.748c0,13.656-13.468,24.735-30.086,24.735c-0.876,0-1.742-0.031-2.598-0.094
			c-1.742-0.125-3.474,0.386-4.934,1.346c-6.238,4.079-14.24,4.621-14.24,4.621c0.063-0.042,0.115-0.084,0.177-0.125
			c4.454-3.098,4.496-9.566,0.303-13.019c-5.435-4.465-8.794-10.641-8.794-17.464c0-13.666,13.468-24.735,30.086-24.735
			S332.245,41.082,332.245,54.748z"/>
	</g>
	<g>
		<g>
			<g>
				<g>
					
						<ellipse transform="matrix(0.1617 -0.9868 0.9868 0.1617 47.9192 214.2936)" style="fill:#C1C9FC;" cx="150.087" cy="78.943" rx="29.454" ry="29.454"/>
				</g>
			</g>
			<g>
				<g>
					<path style="fill:#A0A8FB;" d="M150.087,110.103c-17.181,0-31.16-13.979-31.16-31.16s13.979-31.16,31.16-31.16
						c17.181,0,31.16,13.979,31.16,31.16S167.269,110.103,150.087,110.103z M150.087,51.195c-15.3,0-27.747,12.447-27.747,27.748
						s12.447,27.747,27.747,27.747c15.3,0,27.748-12.447,27.748-27.747S165.388,51.195,150.087,51.195z"/>
				</g>
			</g>
		</g>
		<g>
			<g>
				<path style="fill:#A0A8FB;" d="M150.087,103.24c-0.471,0-0.853-0.382-0.853-0.853v-6.964c0-0.472,0.382-0.853,0.853-0.853
					c0.472,0,0.853,0.382,0.853,0.853v6.964C150.941,102.859,150.559,103.24,150.087,103.24z"/>
			</g>
		</g>
		<g>
			<g>
				<path style="fill:#A0A8FB;" d="M150.087,63.315c-0.471,0-0.853-0.382-0.853-0.853v-6.964c0-0.471,0.382-0.853,0.853-0.853
					c0.472,0,0.853,0.382,0.853,0.853v6.964C150.941,62.934,150.559,63.315,150.087,63.315z"/>
			</g>
		</g>
		<g>
			<g>
				<path style="fill:#A0A8FB;" d="M133.607,79.796h-6.964c-0.472,0-0.853-0.382-0.853-0.853c0-0.472,0.382-0.853,0.853-0.853h6.964
					c0.472,0,0.853,0.382,0.853,0.853C134.46,79.415,134.078,79.796,133.607,79.796z"/>
			</g>
		</g>
		<g>
			<g>
				<path style="fill:#A0A8FB;" d="M173.532,79.796h-6.964c-0.472,0-0.853-0.382-0.853-0.853c0-0.472,0.382-0.853,0.853-0.853h6.964
					c0.472,0,0.853,0.382,0.853,0.853C174.385,79.415,174.003,79.796,173.532,79.796z"/>
			</g>
		</g>
		<g>
			<g>
				<path style="fill:#A0A8FB;" d="M133.509,96.373c-0.218,0-0.437-0.083-0.603-0.25c-0.333-0.333-0.333-0.873,0-1.206l4.925-4.924
					c0.333-0.333,0.873-0.333,1.206,0c0.333,0.333,0.333,0.873,0,1.206l-4.925,4.924C133.946,96.29,133.728,96.373,133.509,96.373z"
					/>
			</g>
		</g>
		<g>
			<g>
				<path style="fill:#A0A8FB;" d="M161.741,68.143c-0.218,0-0.437-0.083-0.603-0.25c-0.333-0.333-0.333-0.873,0-1.206l4.924-4.925
					c0.333-0.333,0.873-0.333,1.206,0c0.333,0.333,0.333,0.873,0,1.206l-4.924,4.925C162.177,68.06,161.959,68.143,161.741,68.143z"
					/>
			</g>
		</g>
		<g>
			<g>
				<path style="fill:#A0A8FB;" d="M138.434,68.143c-0.218,0-0.437-0.083-0.603-0.25l-4.925-4.925c-0.333-0.333-0.333-0.873,0-1.206
					c0.333-0.333,0.873-0.333,1.206,0l4.925,4.925c0.333,0.333,0.333,0.873,0,1.206C138.871,68.06,138.652,68.143,138.434,68.143z"
					/>
			</g>
		</g>
		<g>
			<g>
				<path style="fill:#A0A8FB;" d="M166.665,96.373c-0.218,0-0.437-0.083-0.603-0.25l-4.924-4.924c-0.333-0.333-0.333-0.873,0-1.206
					c0.333-0.333,0.873-0.333,1.206,0l4.924,4.924c0.333,0.333,0.333,0.873,0,1.206C167.102,96.29,166.883,96.373,166.665,96.373z"
					/>
			</g>
		</g>
		<g>
			<g>
				<g>
					<path style="fill:#7F85FA;" d="M150.088,82.134c-0.439,0-0.873-0.134-1.242-0.394c-0.572-0.403-0.913-1.061-0.913-1.761V59.81
						c0-1.19,0.965-2.155,2.155-2.155c1.19,0,2.155,0.965,2.155,2.155v17.11l9.969-3.563c1.118-0.403,2.354,0.182,2.754,1.304
						c0.401,1.121-0.183,2.354-1.304,2.754l-12.849,4.593C150.577,82.093,150.332,82.134,150.088,82.134z"/>
				</g>
			</g>
		</g>
	</g>
	<g>
		<g>
			<g>
				<path style="fill:#A0A8FB;" d="M100.127,127.788c0-1.397,1.133-2.53,2.53-2.53c1.397,0,2.53,1.133,2.53,2.53
					c0,1.397-1.133,2.53-2.53,2.53C101.26,130.317,100.127,129.185,100.127,127.788z"/>
			</g>
			<g>
				<path style="fill:#A0A8FB;" d="M100.127,107.531c0-1.397,1.133-2.53,2.53-2.53s2.53,1.133,2.53,2.53
					c0,1.397-1.133,2.53-2.53,2.53S100.127,108.929,100.127,107.531z"/>
			</g>
			<g>
				<path style="fill:#A0A8FB;" d="M100.127,87.275c0-1.397,1.133-2.53,2.53-2.53c1.397,0,2.53,1.133,2.53,2.53
					c0,1.397-1.133,2.53-2.53,2.53C101.26,89.805,100.127,88.672,100.127,87.275z"/>
			</g>
			<g>
				<g>
					<path style="fill:#A0A8FB;" d="M100.127,67.019c0-1.397,1.133-2.53,2.53-2.53c1.397,0,2.53,1.133,2.53,2.53
						c0,1.397-1.133,2.53-2.53,2.53C101.26,69.549,100.127,68.416,100.127,67.019z"/>
				</g>
			</g>
		</g>
		<g>
			<g>
				<path style="fill:#A0A8FB;" d="M79.871,127.788c0-1.397,1.133-2.53,2.53-2.53c1.397,0,2.53,1.133,2.53,2.53
					c0,1.397-1.133,2.53-2.53,2.53C81.004,130.317,79.871,129.185,79.871,127.788z"/>
			</g>
			<g>
				<path style="fill:#A0A8FB;" d="M79.871,107.531c0-1.397,1.133-2.53,2.53-2.53c1.397,0,2.53,1.133,2.53,2.53
					c0,1.397-1.133,2.53-2.53,2.53C81.004,110.061,79.871,108.929,79.871,107.531z"/>
			</g>
			<g>
				<path style="fill:#A0A8FB;" d="M79.871,87.275c0-1.397,1.133-2.53,2.53-2.53c1.397,0,2.53,1.133,2.53,2.53
					c0,1.397-1.133,2.53-2.53,2.53C81.004,89.805,79.871,88.672,79.871,87.275z"/>
			</g>
			<g>
				<g>
					<path style="fill:#A0A8FB;" d="M79.871,67.019c0-1.397,1.133-2.53,2.53-2.53c1.397,0,2.53,1.133,2.53,2.53
						c0,1.397-1.133,2.53-2.53,2.53C81.004,69.549,79.871,68.416,79.871,67.019z"/>
				</g>
			</g>
		</g>
		<g>
			<g>
				<path style="fill:#A0A8FB;" d="M59.615,127.788c0-1.397,1.133-2.53,2.53-2.53c1.397,0,2.53,1.133,2.53,2.53
					c0,1.397-1.133,2.53-2.53,2.53C60.747,130.318,59.615,129.185,59.615,127.788z"/>
			</g>
			<g>
				<path style="fill:#A0A8FB;" d="M59.615,107.531c0-1.397,1.133-2.53,2.53-2.53c1.397,0,2.53,1.133,2.53,2.53
					c0,1.397-1.133,2.53-2.53,2.53C60.747,110.061,59.615,108.929,59.615,107.531z"/>
			</g>
			<g>
				<path style="fill:#A0A8FB;" d="M59.615,87.275c0-1.397,1.133-2.53,2.53-2.53c1.397,0,2.53,1.133,2.53,2.53
					c0,1.397-1.133,2.53-2.53,2.53C60.747,89.805,59.615,88.672,59.615,87.275z"/>
			</g>
			<g>
				<g>
					<path style="fill:#A0A8FB;" d="M59.615,67.019c0-1.397,1.133-2.53,2.53-2.53c1.397,0,2.53,1.133,2.53,2.53
						c0,1.397-1.133,2.53-2.53,2.53C60.747,69.549,59.615,68.416,59.615,67.019z"/>
				</g>
			</g>
		</g>
		<g>
			<path style="fill:#A0A8FB;" d="M100.127,46.187c0-1.397,1.133-2.53,2.53-2.53c1.397,0,2.53,1.133,2.53,2.53
				c0,1.397-1.133,2.53-2.53,2.53C101.26,48.717,100.127,47.584,100.127,46.187z"/>
		</g>
		<g>
			<path style="fill:#A0A8FB;" d="M79.871,46.187c0-1.397,1.133-2.53,2.53-2.53c1.397,0,2.53,1.133,2.53,2.53
				c0,1.397-1.133,2.53-2.53,2.53C81.004,48.717,79.871,47.584,79.871,46.187z"/>
		</g>
		<g>
			<path style="fill:#A0A8FB;" d="M59.615,46.187c0-1.397,1.133-2.53,2.53-2.53c1.397,0,2.53,1.133,2.53,2.53
				c0,1.397-1.133,2.53-2.53,2.53C60.747,48.717,59.615,47.584,59.615,46.187z"/>
		</g>
	</g>
	<g>
		<g>
			<path style="fill:#A0A8FB;" d="M362.227,358.853h63.87c-3.511-10.278-1.933-23.491-1.933-23.491h10.77
				c8.941,0,15.713-7.684,14.282-16.176c-0.723-4.253-1.21-9.499-1.21-15.878c0-13.681,3.526-24.838,6.58-31.94
				c2.228-5.174,7.525-8.52,13.352-8.52h-63.87c-5.828,0-11.125,3.346-13.352,8.52c-3.054,7.103-6.58,18.26-6.58,31.94
				c0,6.38,0.487,11.625,1.21,15.878c1.431,8.492-5.341,16.176-14.282,16.176h-10.771
				C360.294,335.362,358.715,348.574,362.227,358.853z"/>
		</g>
		<g>
			<path style="fill:#222A40;" d="M426.097,358.853h30.423c0,0,5.194-16.403-0.826-26.383l0.015-0.043
				c0.59-1.616,19.874-53.829,19.461-61.244c-0.398-7.542-5.4-8.336-5.4-8.336h-1.829c-5.828,0-11.125,3.346-13.352,8.52
				c-3.054,7.103-6.58,18.26-6.58,31.94c0,6.38,0.487,11.625,1.21,15.878c1.431,8.492-5.341,16.176-14.282,16.176h-10.77
				C424.164,335.362,422.585,348.574,426.097,358.853z"/>
		</g>
		<g>
			<path style="fill:#222A40;" d="M424.164,335.737h-61.231c-0.207,0-0.375-0.168-0.375-0.375c0-0.207,0.168-0.375,0.375-0.375
				h61.231c0.207,0,0.375,0.168,0.375,0.375C424.539,335.569,424.371,335.737,424.164,335.737z"/>
		</g>
		<g>
			<polygon style="fill:#222A40;" points="453.233,358.846 466.153,447.353 461.641,447.353 443.594,358.846 			"/>
		</g>
		<g>
			<polygon style="fill:#222A40;" points="364.574,358.846 351.654,447.353 356.166,447.353 374.212,358.846 			"/>
		</g>
		<g>
			<polygon style="fill:#222A40;" points="427.183,358.846 414.263,447.353 418.774,447.353 436.821,358.846 			"/>
		</g>
		<g>
			<polygon style="fill:#222A40;" points="388.84,358.846 401.759,447.353 397.248,447.353 379.201,358.846 			"/>
		</g>
	</g>
	<g>
		<g>
			<g>
				<path style="fill:#E8A03F;" d="M461.237,267.591c0.378,6.348-0.152,25.283-9.513,28.914c0,0-1.562-4.149-3.563-9.203
					l-3.457,0.767c-0.27,4.155-2.178,7.86-4.548,10.513c-2.231,2.497-4.873,4.059-6.905,4.18c-4.198,0.235-26.76-1.379-26.76-1.379
					s-8.045,4.898-17.483,3.508c-9.424-1.391-24.023-10.277-24.023-10.277l6.846-27.78c-1.445-3.417-8.717-20.824-9.056-26.524
					c-0.378-6.348,3.619-25.637,5.14-29.378c1.521-3.741,18.342-8.703,18.342-8.703c4.279-3.344,7.378-2.685,7.378-2.685
					l0.267,0.014l-0.135,2.21c0,0-7.674,21.326,2.399,19.707c10.072-1.634,19.589-22.02,19.589-22.02l-0.542-1.904l0.422-0.114
					c0,0,5.611-1.087,8.296,2.551c0,0,12.071,3.908,17.553,12.081C446.98,220.227,460.86,261.244,461.237,267.591z"/>
			</g>
			<g>
				<g>
					<path style="fill:#ECB45E;" d="M377.118,213.112c-0.625-0.508-1.53-0.488-2.083,0.124c-1.459,1.614-2.918,3.228-4.377,4.841
						c-0.518,0.573-0.49,1.583,0.124,2.083c0.625,0.508,1.53,0.488,2.083-0.124c1.459-1.614,2.918-3.227,4.377-4.841
						C377.76,214.622,377.732,213.612,377.118,213.112z"/>
				</g>
				<g>
					<path style="fill:#ECB45E;" d="M387.814,227.33c-0.776-1.529-1.552-3.058-2.327-4.587c-0.156-0.307-0.6-0.556-0.921-0.624
						c-0.358-0.076-0.825-0.004-1.126,0.216c-0.302,0.221-0.561,0.54-0.625,0.92c-0.069,0.417,0.026,0.753,0.216,1.126
						c0.776,1.529,1.552,3.058,2.327,4.587c0.156,0.307,0.6,0.556,0.92,0.624c0.358,0.076,0.825,0.005,1.126-0.216
						c0.302-0.221,0.561-0.54,0.625-0.92C388.099,228.039,388.003,227.704,387.814,227.33z"/>
				</g>
				<g>
					<path style="fill:#ECB45E;" d="M381.969,236.525c-1.115-1.722-2.231-3.444-3.347-5.166c-0.42-0.648-1.41-0.875-2.047-0.409
						c-0.652,0.477-0.858,1.353-0.408,2.047c1.115,1.722,2.231,3.444,3.347,5.166c0.42,0.648,1.41,0.875,2.047,0.409
						C382.213,238.094,382.418,237.219,381.969,236.525z"/>
				</g>
				<g>
					<path style="fill:#ECB45E;" d="M372.059,229.436c-0.114-0.336-0.4-0.69-0.729-0.84c-0.669-0.304-1.684-0.119-1.984,0.648
						c-0.656,1.681-1.312,3.363-1.968,5.044c-0.148,0.379-0.217,0.745-0.081,1.144c0.114,0.336,0.401,0.691,0.729,0.84
						c0.669,0.304,1.684,0.119,1.984-0.648c0.656-1.681,1.312-3.363,1.968-5.044C372.126,230.201,372.195,229.835,372.059,229.436z"
						/>
				</g>
				<g>
					<path style="fill:#ECB45E;" d="M377.655,250.548c-1-1.929-2-3.857-3-5.786c-0.159-0.307-0.597-0.556-0.921-0.624
						c-0.358-0.076-0.825-0.004-1.126,0.216c-0.703,0.515-0.79,1.311-0.409,2.046c1,1.929,2,3.857,3,5.786
						c0.159,0.307,0.597,0.556,0.921,0.624c0.358,0.076,0.825,0.005,1.126-0.216C377.949,252.08,378.036,251.284,377.655,250.548z"
						/>
				</g>
				<g>
					<path style="fill:#ECB45E;" d="M397.62,232.869c-0.653-0.532-1.496-0.457-2.083,0.124c-1.824,1.804-3.648,3.609-5.473,5.413
						c-0.551,0.545-0.467,1.602,0.124,2.083c0.653,0.532,1.496,0.457,2.083-0.124c1.824-1.804,3.648-3.609,5.473-5.413
						C398.294,234.408,398.211,233.35,397.62,232.869z"/>
				</g>
				<g>
					<path style="fill:#ECB45E;" d="M410.781,231.579l-4.342-5.138c-0.257-0.305-0.515-0.538-0.92-0.624
						c-0.358-0.076-0.825-0.004-1.126,0.216c-0.585,0.428-0.941,1.416-0.409,2.047c1.447,1.712,2.895,3.425,4.342,5.137
						c0.257,0.305,0.515,0.538,0.92,0.625c0.358,0.076,0.825,0.004,1.126-0.216C410.958,233.197,411.314,232.209,410.781,231.579z"
						/>
				</g>
				<g>
					<path style="fill:#ECB45E;" d="M424.181,213.831c-0.492-0.672-1.336-0.831-2.047-0.409c-2.313,1.374-4.626,2.748-6.939,4.123
						c-0.665,0.395-0.862,1.427-0.408,2.047c0.492,0.672,1.335,0.831,2.046,0.408c2.313-1.374,4.626-2.748,6.939-4.123
						C424.438,215.483,424.635,214.451,424.181,213.831z"/>
				</g>
				<g>
					<path style="fill:#ECB45E;" d="M435.815,210.795c-2.184-1.034-4.369-2.068-6.553-3.103c-0.697-0.33-1.648-0.09-1.984,0.648
						c-0.323,0.712-0.097,1.631,0.648,1.984c2.184,1.034,4.369,2.068,6.553,3.103c0.697,0.33,1.648,0.091,1.984-0.648
						C436.786,212.067,436.56,211.148,435.815,210.795z"/>
				</g>
				<g>
					<path style="fill:#ECB45E;" d="M428.793,222.721c-0.819,0.086-1.405,0.733-1.385,1.56l0.136,5.744
						c0.018,0.772,0.787,1.466,1.56,1.385c0.819-0.086,1.405-0.733,1.385-1.56l-0.136-5.744
						C430.335,223.333,429.567,222.64,428.793,222.721z"/>
				</g>
				<g>
					<path style="fill:#ECB45E;" d="M421.762,203.943c-0.197-0.295-0.565-0.565-0.921-0.625c-0.382-0.063-0.804-0.02-1.126,0.216
						c-0.326,0.239-0.506,0.535-0.624,0.921c-0.345,1.116-0.689,2.232-1.034,3.348c-0.107,0.346,0.022,0.835,0.216,1.126
						c0.197,0.295,0.565,0.565,0.92,0.625c0.382,0.063,0.804,0.02,1.126-0.216c0.326-0.238,0.506-0.535,0.625-0.92
						c0.344-1.116,0.689-2.232,1.034-3.348C422.085,204.723,421.957,204.234,421.762,203.943z"/>
				</g>
				<g>
					<path style="fill:#ECB45E;" d="M417.516,231.198c-0.799,0.084-1.43,0.734-1.385,1.56c0.125,2.321,0.25,4.641,0.375,6.962
						c0.042,0.771,0.77,1.468,1.56,1.385c0.799-0.084,1.43-0.734,1.385-1.56c-0.125-2.321-0.25-4.641-0.376-6.962
						C419.035,231.812,418.306,231.115,417.516,231.198z"/>
				</g>
				<g>
					<path style="fill:#ECB45E;" d="M387.871,215.352c-0.728-1.874-1.456-3.748-2.183-5.622c-0.279-0.718-1.109-1.219-1.873-0.921
						c-0.719,0.281-1.22,1.103-0.921,1.873c0.728,1.874,1.456,3.748,2.183,5.622c0.279,0.718,1.109,1.219,1.873,0.921
						C387.669,216.944,388.17,216.122,387.871,215.352z"/>
				</g>
				<g>
					<path style="fill:#ECB45E;" d="M407.492,248.911c-0.618-2.499-1.236-4.998-1.854-7.497c-0.186-0.751-1.175-1.194-1.873-0.921
						c-0.797,0.311-1.12,1.068-0.921,1.873c0.618,2.499,1.236,4.998,1.854,7.497c0.186,0.751,1.175,1.194,1.873,0.921
						C407.368,250.473,407.691,249.716,407.492,248.911z"/>
				</g>
				<g>
					<path style="fill:#ECB45E;" d="M398.102,252.744c-2.365-0.613-4.729-1.225-7.094-1.838c-0.747-0.194-1.624,0.374-1.751,1.136
						c-0.136,0.818,0.336,1.543,1.136,1.751c2.365,0.613,4.729,1.225,7.094,1.838c0.747,0.194,1.624-0.374,1.75-1.136
						C399.374,253.676,398.902,252.951,398.102,252.744z"/>
				</g>
				<g>
					<path style="fill:#ECB45E;" d="M384.08,259.687c-0.756-0.344-1.577-0.07-1.984,0.648l-3.732,6.581
						c-0.382,0.673-0.054,1.664,0.648,1.984c0.756,0.344,1.577,0.07,1.984-0.648c1.244-2.194,2.488-4.387,3.732-6.581
						C385.11,260.998,384.782,260.006,384.08,259.687z"/>
				</g>
				<g>
					<path style="fill:#ECB45E;" d="M400.166,273.58c-2.161-1.789-4.322-3.577-6.483-5.365c-0.595-0.492-1.568-0.509-2.083,0.124
						c-0.49,0.602-0.511,1.557,0.124,2.083c2.161,1.788,4.322,3.577,6.483,5.365c0.595,0.492,1.568,0.509,2.083-0.124
						C400.78,275.061,400.801,274.106,400.166,273.58z"/>
				</g>
				<g>
					<path style="fill:#ECB45E;" d="M388.578,277.334c-0.046-0.77-0.767-1.468-1.56-1.385c-0.796,0.083-1.434,0.735-1.385,1.56
						c0.126,2.115,0.252,4.231,0.378,6.346c0.046,0.77,0.767,1.468,1.56,1.385c0.796-0.083,1.434-0.735,1.385-1.56
						C388.83,281.565,388.704,279.449,388.578,277.334z"/>
				</g>
				<g>
					<path style="fill:#ECB45E;" d="M377.846,277.583c-0.749-0.124-1.628,0.32-1.751,1.136c-0.29,1.936-0.581,3.872-0.872,5.807
						c-0.114,0.761,0.318,1.615,1.136,1.751c0.749,0.124,1.628-0.32,1.75-1.136c0.291-1.936,0.581-3.872,0.872-5.807
						C379.097,278.573,378.665,277.719,377.846,277.583z"/>
				</g>
				<g>
					<path style="fill:#ECB45E;" d="M376.969,293.383c-1.692-1.882-3.383-3.763-5.075-5.645c-0.236-0.263-0.732-0.389-1.067-0.37
						c-0.361,0.022-0.783,0.208-1.016,0.493c-0.241,0.296-0.41,0.676-0.369,1.067c0.043,0.413,0.217,0.709,0.493,1.016
						c1.692,1.882,3.383,3.763,5.075,5.645c0.236,0.263,0.732,0.389,1.067,0.369c0.361-0.022,0.783-0.208,1.016-0.493
						c0.241-0.296,0.41-0.676,0.369-1.067C377.419,293.985,377.245,293.69,376.969,293.383z"/>
				</g>
				<g>
					<path style="fill:#ECB45E;" d="M397.046,292.869c-0.303-0.775-1.077-1.149-1.873-0.921c-2.502,0.716-5.004,1.432-7.506,2.148
						c-0.743,0.213-1.201,1.156-0.921,1.873c0.303,0.775,1.077,1.149,1.873,0.921c2.502-0.716,5.004-1.432,7.506-2.148
						C396.868,294.529,397.326,293.586,397.046,292.869z"/>
				</g>
				<g>
					<path style="fill:#ECB45E;" d="M409.584,290.485c-1.821-1.88-3.643-3.759-5.464-5.639c-0.539-0.556-1.605-0.462-2.083,0.124
						c-0.536,0.659-0.451,1.49,0.124,2.083c1.821,1.88,3.643,3.759,5.464,5.639c0.539,0.556,1.605,0.463,2.083-0.124
						C410.243,291.909,410.158,291.078,409.584,290.485z"/>
				</g>
				<g>
					<path style="fill:#ECB45E;" d="M422.19,278.48c-0.487-0.665-1.342-0.841-2.047-0.409c-1.93,1.184-3.859,2.368-5.789,3.552
						c-0.659,0.404-0.867,1.42-0.409,2.047c0.487,0.665,1.342,0.841,2.047,0.409c1.929-1.184,3.859-2.368,5.788-3.553
						C422.44,280.122,422.649,279.106,422.19,278.48z"/>
				</g>
				<g>
					<path style="fill:#ECB45E;" d="M417.726,267.732c-2.174,0.366-4.347,0.733-6.521,1.099c-0.399,0.067-0.737,0.18-1.016,0.493
						c-0.24,0.271-0.408,0.701-0.37,1.067c0.076,0.725,0.745,1.523,1.561,1.385c2.173-0.366,4.347-0.733,6.521-1.099
						c0.399-0.067,0.737-0.18,1.016-0.493c0.24-0.271,0.408-0.701,0.369-1.067C419.21,268.392,418.541,267.594,417.726,267.732z"/>
				</g>
				<g>
					<path style="fill:#ECB45E;" d="M423.46,253.821c-3.063,0.316-6.126,0.631-9.189,0.947c-0.767,0.079-1.471,0.743-1.385,1.56
						c0.08,0.767,0.738,1.47,1.56,1.385c3.063-0.316,6.126-0.631,9.189-0.947c0.767-0.079,1.471-0.743,1.385-1.56
						C424.94,254.439,424.283,253.736,423.46,253.821z"/>
				</g>
				<g>
					<path style="fill:#ECB45E;" d="M404.264,259.366c-0.749-0.125-1.628,0.32-1.751,1.136c-0.343,2.28-0.685,4.561-1.028,6.841
						c-0.114,0.761,0.318,1.615,1.137,1.75c0.749,0.124,1.628-0.32,1.751-1.136c0.343-2.28,0.685-4.561,1.028-6.841
						C405.515,260.355,405.083,259.502,404.264,259.366z"/>
				</g>
				<g>
					<path style="fill:#ECB45E;" d="M432.325,250.036c-0.884-1.676-1.768-3.353-2.651-5.03c-0.162-0.308-0.595-0.555-0.921-0.624
						c-0.358-0.076-0.825-0.004-1.126,0.216c-0.302,0.221-0.561,0.54-0.624,0.921c-0.069,0.414,0.021,0.757,0.216,1.126
						c0.884,1.676,1.768,3.353,2.651,5.029c0.162,0.308,0.595,0.555,0.921,0.624c0.358,0.076,0.825,0.004,1.126-0.216
						c0.302-0.221,0.561-0.54,0.624-0.92C432.61,250.748,432.52,250.406,432.325,250.036z"/>
				</g>
				<g>
					<path style="fill:#ECB45E;" d="M445.726,238.697c-2.219-0.489-4.438-0.979-6.657-1.468c-0.753-0.166-1.621,0.355-1.751,1.137
						c-0.132,0.794,0.33,1.573,1.136,1.75c2.219,0.489,4.438,0.979,6.657,1.468c0.753,0.166,1.621-0.355,1.75-1.136
						C446.994,239.654,446.532,238.875,445.726,238.697z"/>
				</g>
				<g>
					<path style="fill:#ECB45E;" d="M441.561,222.411c-0.065-0.398-0.181-0.738-0.493-1.016c-0.271-0.24-0.701-0.408-1.067-0.369
						c-0.728,0.076-1.519,0.745-1.385,1.56c0.323,1.967,0.645,3.933,0.968,5.9c0.065,0.398,0.181,0.739,0.493,1.016
						c0.271,0.24,0.701,0.408,1.067,0.369c0.728-0.076,1.519-0.745,1.385-1.56C442.207,226.344,441.884,224.378,441.561,222.411z"/>
				</g>
				<g>
					<path style="fill:#ECB45E;" d="M441.462,252.207c-0.073-0.767-0.748-1.47-1.56-1.385c-0.772,0.081-1.463,0.737-1.385,1.56
						c0.272,2.861,0.545,5.722,0.817,8.584c0.073,0.767,0.748,1.47,1.56,1.385c0.773-0.081,1.464-0.738,1.385-1.56
						C442.007,257.929,441.734,255.068,441.462,252.207z"/>
				</g>
				<g>
					<path style="fill:#ECB45E;" d="M455.776,261.61c-1.39-1.492-2.78-2.985-4.169-4.477c-0.243-0.261-0.725-0.39-1.067-0.369
						c-0.361,0.021-0.783,0.208-1.016,0.493c-0.241,0.296-0.41,0.676-0.37,1.067c0.043,0.41,0.213,0.715,0.493,1.016
						c1.39,1.492,2.78,2.985,4.169,4.477c0.243,0.261,0.725,0.39,1.067,0.369c0.361-0.021,0.783-0.208,1.016-0.493
						c0.241-0.296,0.41-0.676,0.37-1.067C456.226,262.216,456.056,261.911,455.776,261.61z"/>
				</g>
				<g>
					<path style="fill:#ECB45E;" d="M432.897,263.832c-0.788-0.131-1.58,0.328-1.75,1.136c-0.527,2.499-1.053,4.998-1.58,7.498
						c-0.159,0.754,0.35,1.62,1.136,1.75c0.788,0.131,1.58-0.328,1.75-1.136c0.527-2.499,1.053-4.998,1.58-7.498
						C434.193,264.828,433.684,263.962,432.897,263.832z"/>
				</g>
				<g>
					<path style="fill:#ECB45E;" d="M444.801,273.579c-0.103-0.763-0.727-1.472-1.561-1.385c-0.747,0.078-1.495,0.741-1.385,1.56
						c0.246,1.834,0.492,3.669,0.738,5.503c0.102,0.763,0.727,1.472,1.56,1.385c0.747-0.078,1.495-0.741,1.385-1.56
						C445.293,277.248,445.047,275.413,444.801,273.579z"/>
				</g>
				<g>
					<path style="fill:#ECB45E;" d="M457.336,277.987c-0.707-1.533-1.415-3.066-2.122-4.599c-0.166-0.36-0.363-0.654-0.729-0.84
						c-0.327-0.166-0.797-0.217-1.144-0.081c-0.349,0.136-0.68,0.378-0.84,0.729c-0.154,0.34-0.245,0.79-0.081,1.144
						c0.707,1.533,1.415,3.066,2.122,4.599c0.166,0.36,0.363,0.654,0.729,0.84c0.327,0.166,0.797,0.216,1.144,0.081
						c0.35-0.137,0.68-0.378,0.84-0.729C457.41,278.791,457.5,278.341,457.336,277.987z"/>
				</g>
				<g>
					<path style="fill:#ECB45E;" d="M434.068,283.483c-0.755-0.125-1.621,0.321-1.751,1.136c-0.397,2.49-0.794,4.979-1.192,7.468
						c-0.121,0.76,0.323,1.615,1.136,1.751c0.755,0.125,1.621-0.321,1.751-1.136c0.397-2.489,0.794-4.979,1.192-7.468
						C435.326,284.473,434.882,283.618,434.068,283.483z"/>
				</g>
				<g>
					<path style="fill:#ECB45E;" d="M424.258,294.712c-1.727-1.404-3.454-2.808-5.181-4.212c-0.599-0.487-1.565-0.513-2.083,0.124
						c-0.487,0.598-0.516,1.563,0.124,2.083c1.727,1.404,3.454,2.808,5.181,4.212c0.599,0.487,1.565,0.513,2.083-0.124
						C424.868,296.197,424.897,295.232,424.258,294.712z"/>
				</g>
			</g>
		</g>
		<g>
			<path style="fill:#7F85FA;" d="M343.941,413.23c-2.399,0.911-6.171,2.111-9.467,2.115c-3.34,0.007-6.584-1.116-8.555-1.945
				c-1.169-0.522-1.888-0.922-1.888-0.922s0.034-33.015-1.793-50.82c-1.774-17.394-3.589-35.244-3.799-37.774
				c-0.335-4.148,3.667-13.387,9.411-17.956c0,0-0.001-0.015,0.014-0.016c1.313-1.039,2.698-1.845,4.165-2.287
				c7.869-2.389,32.956-9.01,32.956-9.01s14.599,8.887,24.023,10.277c9.439,1.389,17.483-3.508,17.483-3.508
				s22.562,1.614,26.76,1.379c2.033-0.121,4.674-1.682,6.905-4.18c2.373,4.618,6.273,13.033,6.266,18.369
				c-0.017,7.672-5.511,19.911-19.083,28.537c-13.559,8.61-75.609-9.539-75.609-9.539s1.616,8.249,1.97,14.185
				c0.353,5.935-7.293,62.061-7.293,62.061S345.444,412.652,343.941,413.23z"/>
		</g>
		<g>
			<path style="fill:#E07049;" d="M418.958,175.764c-0.709,1.505-1.843,2.814-3.251,3.741c-1.522,0.992-3.369,1.501-5.192,1.417
				c-0.382,1.279-0.861,2.431-1.433,3.485l0.001,0.015c-4.077,7.5-12.248,9.523-13.991,9.789c-0.278,0.046-0.557,0.077-0.851,0.11
				c-2.598,0.302-5.792,0.285-7.284-1.193c-1.635-1.647-7.547-10.592-7.792-15.455c-0.189-3.418,1.329-12.45,2.243-17.456
				c0.377-2.106,0.649-3.497,0.649-3.497s0,0,0.014-0.016c0.335-0.33,5.84-5.683,12.029-6.746c0,0,4.703,16.2,20.185,16.314
				c0.677-0.055,1.363,0.052,1.997,0.28c1.406,0.537,2.529,1.771,3.073,3.202c0.123,0.333,0.232,0.666,0.297,1.017
				c0.23,1.139,0.169,2.34-0.134,3.467C419.386,174.764,419.195,175.277,418.958,175.764z"/>
		</g>
		<g>
			<path style="fill:#E07049;" d="M415.214,197.551l0.542,1.904c0,0-9.518,20.386-19.589,22.02
				c-10.072,1.619-2.399-19.707-2.399-19.707s12.569-2.137,15.315-17.346l-0.001-0.015c0.573-1.054,1.051-2.206,1.433-3.485
				L415.214,197.551z"/>
		</g>
		<g>
			<path style="fill:#222A40;" d="M395.092,194.211c1.743-0.266,9.914-2.289,13.991-9.789c-2.746,15.21-15.315,17.346-15.315,17.346
				l0.135-2.21l0.341-5.193l-0.003-0.044C394.535,194.288,394.814,194.257,395.092,194.211z"/>
		</g>
		<g>
			<path style="fill:#222A40;" d="M440.496,161.906c-0.443,1.253-0.109,2.637,0.392,3.864c0.502,1.227,1.163,2.399,1.416,3.685
				c0.269,1.299,0.019,2.807-1.026,3.623c-0.834-1.355-2.811-1.547-4.284-0.957c-1.487,0.591-2.645,1.753-3.952,2.644
				c-1.321,0.906-2.98,1.581-4.475,1.049c-1.586-0.571-2.744-2.408-4.419-2.235c-1.043,0.106-1.805,0.965-2.623,1.619
				c-0.734,0.576-1.803,0.994-2.568,0.567c0.237-0.487,0.428-1.001,0.56-1.526c0.302-1.127,0.364-2.327,0.134-3.467
				c-0.065-0.351-0.174-0.684-0.297-1.017c-0.543-1.431-1.666-2.665-3.072-3.202c-0.634-0.228-1.321-0.335-1.997-0.28
				c-15.482-0.114-20.185-16.314-20.185-16.314c-6.189,1.063-11.694,6.415-12.029,6.746c-0.014,0.016-0.014,0.016-0.014,0.016
				s-0.272,1.391-0.649,3.497c0,0-4.006-7.226-3.477-12.238c0.504-4.701,14.46-8.117,16.209-8.531
				c0.117-0.022,0.175-0.04,0.175-0.04s6.571-2.593,13.583,0.256c-0.807-2.627,0.491-5.66,2.796-7.172
				c2.405-1.562,5.627-1.562,8.214-0.311c1.841,0.881,3.467,2.38,5.505,2.599c3.05,0.336,5.747-2.278,8.822-2.269
				c2.232,0,4.301,1.488,5.363,3.435c1.077,1.961,1.232,4.316,0.846,6.512c-0.407,2.345-1.377,4.93-0.118,6.954
				c0.67,1.083,1.832,1.724,2.686,2.663c1.644,1.794,1.892,4.721,0.581,6.779C441.929,159.899,440.915,160.742,440.496,161.906z"/>
		</g>
		<g>
			<path style="fill:#E8A03F;" d="M348.099,419.766l1.987,25.703l-4.919,0.293l-1.234-20.752l-4.215,21.076l-21.297,1.267
				c-0.062-4.519,6.986-11.515,6.986-11.515l0.393-21.721l0.12-0.717c1.971,0.829,5.215,1.951,8.555,1.945
				c3.296-0.004,7.067-1.204,9.467-2.115C346.104,414.801,347.904,417.236,348.099,419.766z"/>
		</g>
		<g>
			<path style="fill:#7F85FA;" d="M292.971,409.208c-6.764-0.898-13.577-5.119-16.629-7.229c-1.048-0.721-1.652-1.188-1.652-1.188
				s35.983-86.718,42.903-91.15c2.99-1.922,6.839-3.052,10.258-3.714c-5.744,4.569-9.747,13.808-9.411,17.956
				c0.21,2.53,2.025,20.38,3.799,37.774l-25.475,47.694C295.513,409.456,294.253,409.398,292.971,409.208z"/>
		</g>
		<g>
			<path style="fill:#E8A03F;" d="M292.971,409.208c0.909,2.858,0.748,6.607-1.124,8.935l-16.111,20.113l-3.793-3.144l13.283-15.984
				l-17.482,12.48l-16.404-13.627c3.038-3.344,12.968-3.624,12.968-3.624l12.034-12.377
				C279.393,404.089,286.207,408.31,292.971,409.208z"/>
		</g>
		<g>
			<g>
				<path style="fill:#BD4A28;" d="M390.265,167.693c0,0,1.002,2.52,0.742,5.505c-0.259,2.985-2.412,4.743-3.535,4.512
					c-1.123-0.231-3.115-1.681-2.817-3.216c0,0,0.525-1.018,1.465-1.795S390.265,167.693,390.265,167.693z"/>
			</g>
			<g>
				<path style="fill:#222A40;" d="M388.789,178.673c-0.042,0-0.085-0.007-0.127-0.022c-1.565-0.564-2.944-1.489-3.985-2.675
					c-0.652-0.743-0.576-1.814,0.182-2.547c2.174-2.103,4.098-4.411,5.719-6.858c0.115-0.173,0.348-0.22,0.52-0.105
					c0.173,0.114,0.22,0.347,0.105,0.52c-1.65,2.493-3.609,4.843-5.822,6.983c-0.468,0.452-0.525,1.074-0.14,1.513
					c0.958,1.091,2.229,1.943,3.676,2.464c0.195,0.07,0.296,0.285,0.226,0.48C389.087,178.578,388.942,178.673,388.789,178.673z"/>
			</g>
			<g>
				<path style="fill:#222A40;" d="M397.052,167.363c-0.186,1.409,0.656,2.683,1.882,2.845c1.226,0.162,2.371-0.849,2.557-2.258
					c0.186-1.409-0.656-2.683-1.882-2.845C398.383,164.943,397.238,165.954,397.052,167.363z"/>
			</g>
			<g>
				<path style="fill:#222A40;" d="M383.085,165.515c-0.186,1.409,0.656,2.683,1.882,2.845c1.226,0.162,2.371-0.849,2.557-2.258
					c0.186-1.409-0.656-2.683-1.882-2.845C384.416,163.095,383.271,164.105,383.085,165.515z"/>
			</g>
			<g>
				<path style="fill:#222A40;" d="M399.749,160.072c1.52,0.332,2.92,0.914,4.23,1.753c0.236,0.151,0.408,0.503,0.445,0.77
					c0.04,0.29-0.044,0.659-0.237,0.886c-0.194,0.229-0.463,0.417-0.77,0.445c-0.332,0.031-0.606-0.058-0.886-0.237
					c-0.07-0.045-0.142-0.088-0.214-0.131c-0.804-0.46-1.66-0.816-2.551-1.068c-0.109-0.027-0.217-0.055-0.326-0.079
					c-0.312-0.068-0.583-0.192-0.782-0.452c-0.176-0.23-0.285-0.583-0.233-0.873C398.529,160.501,399.103,159.93,399.749,160.072z"
					/>
			</g>
			<g>
				<path style="fill:#222A40;" d="M388.195,158.543c-1.554-0.074-3.058,0.123-4.54,0.593c-0.267,0.085-0.525,0.379-0.63,0.628
					c-0.114,0.27-0.129,0.647-0.001,0.917c0.128,0.271,0.339,0.523,0.628,0.63c0.313,0.116,0.6,0.102,0.917,0.001
					c0.08-0.025,0.16-0.048,0.24-0.071c0.896-0.235,1.815-0.357,2.741-0.367c0.112,0.002,0.224,0.003,0.336,0.009
					c0.319,0.015,0.612-0.034,0.873-0.233c0.23-0.176,0.427-0.489,0.452-0.782C389.262,159.274,388.855,158.575,388.195,158.543z"/>
			</g>
			<g>
				<path style="fill:#222A40;" d="M411.599,178.945c-0.027,0-0.055-0.003-0.083-0.009c-0.202-0.046-0.328-0.247-0.283-0.448
					c0.708-3.129,2.785-5.963,5.556-7.582c0.179-0.104,0.407-0.045,0.514,0.135c0.104,0.179,0.044,0.408-0.135,0.513
					c-2.595,1.516-4.54,4.169-5.202,7.099C411.926,178.827,411.771,178.945,411.599,178.945z"/>
			</g>
			<g>
				<path style="fill:#BD4A28;" d="M394.939,181.836c0.321,1.49-0.869,3.011-2.658,3.396c-1.789,0.385-3.5-0.511-3.82-2.001
					c-0.321-1.49,0.869-3.011,2.658-3.396C392.908,179.45,394.619,180.346,394.939,181.836z"/>
			</g>
			<g>
				<path style="fill:#222A40;" d="M389.056,183.263c-0.804,0-1.608-0.09-2.392-0.275c-0.202-0.048-0.326-0.249-0.279-0.451
					c0.048-0.202,0.248-0.325,0.451-0.279c3.058,0.722,6.436-0.107,8.814-2.162c0.157-0.137,0.394-0.119,0.529,0.039
					c0.135,0.157,0.118,0.394-0.039,0.529C394.193,182.345,391.623,183.263,389.056,183.263z"/>
			</g>
		</g>
		<g>
			<path style="fill:#BD4A28;" d="M401.953,172.127c-4.738,0.282-4.308,7.646,0.438,7.364
				C407.13,179.209,406.699,171.845,401.953,172.127z"/>
		</g>
		<g>
			<path style="fill:#222A40;" d="M322.238,362.032c-0.185,0-0.345-0.136-0.371-0.323c-0.21-1.503-5.131-36.85-3.977-41.053
				s9.319-14.524,9.666-14.962c0.131-0.161,0.365-0.188,0.527-0.061c0.162,0.129,0.189,0.365,0.06,0.527
				c-0.084,0.105-8.417,10.638-9.531,14.694c-1.113,4.055,3.945,40.384,3.996,40.75c0.029,0.205-0.114,0.395-0.319,0.423
				C322.272,362.031,322.255,362.032,322.238,362.032z"/>
		</g>
		<g>
			<path style="fill:#222A40;" d="M341.913,414.319c-0.012,0-0.024-0.001-0.037-0.002c-0.206-0.021-0.357-0.204-0.336-0.41
				c0.053-0.536,5.285-53.719,5.243-64.163c-0.042-10.388-7.989-29.274-8.07-29.464c-0.054-0.129-0.032-0.277,0.057-0.386
				c0.09-0.107,0.233-0.155,0.368-0.127c28.946,6.209,84.689,16.145,88.473,9.28c4.789-8.697,1.829-23.944,1.798-24.098
				c-0.04-0.203,0.092-0.4,0.295-0.441c0.206-0.041,0.4,0.093,0.441,0.295c0.126,0.636,3.045,15.668-1.878,24.605
				c-4.807,8.725-79.94-6.926-88.59-8.76c1.414,3.463,7.818,19.67,7.856,29.091c0.043,10.483-5.194,63.704-5.247,64.241
				C342.267,414.175,342.104,414.319,341.913,414.319z"/>
		</g>
		<g>
			<path style="fill:#222A40;" d="M426.106,265.934c-0.123,0-0.244-0.06-0.315-0.172c-3.078-4.792,1.287-11.161,2.283-12.502
				c-1.603-1.911-11.911-14.275-13.709-18.489c-1.997-4.677-0.505-18.654,2.494-23.367c2.998-4.713,11.06-6.116,11.401-6.173
				c0.214-0.038,0.397,0.104,0.433,0.308c0.034,0.204-0.104,0.398-0.308,0.432c-0.081,0.014-8.075,1.406-10.893,5.836
				c-2.846,4.473-4.326,18.245-2.438,22.67c1.865,4.372,13.668,18.39,13.787,18.53c0.114,0.137,0.117,0.336,0.007,0.476
				c-0.056,0.069-5.52,7.058-2.427,11.874c0.112,0.175,0.061,0.406-0.112,0.519C426.246,265.914,426.176,265.934,426.106,265.934z"
				/>
		</g>
		<g>
			<path style="fill:#222A40;" d="M458.888,268.541c-0.139,0-0.272-0.077-0.337-0.21c-5.076-10.34-25.711-14.102-25.919-14.139
				c-0.204-0.036-0.34-0.23-0.304-0.435c0.036-0.203,0.225-0.337,0.435-0.304c0.863,0.152,21.218,3.865,26.462,14.547
				c0.091,0.186,0.015,0.41-0.172,0.502C459.001,268.529,458.944,268.541,458.888,268.541z"/>
		</g>
		<g>
			<path style="fill:#222A40;" d="M454.287,292.495c-0.199,0-0.365-0.156-0.375-0.358c-0.004-0.102-0.512-10.264-4.057-17.971
				c-3.522-7.658-18.411-15.341-18.562-15.417c-0.185-0.095-0.257-0.32-0.163-0.505c0.095-0.186,0.321-0.259,0.505-0.163
				c0.622,0.318,15.271,7.88,18.901,15.772c3.607,7.842,4.12,18.145,4.125,18.248c0.009,0.207-0.15,0.383-0.357,0.393
				C454.299,292.495,454.293,292.495,454.287,292.495z"/>
		</g>
		<g>
			<path style="fill:#222A40;" d="M391.997,234.795c-1.113,0-2.131-0.316-3.04-0.947c-9.111-6.32-3.578-27.79-3.338-28.701
				c0.052-0.2,0.253-0.32,0.458-0.267c0.2,0.053,0.319,0.258,0.267,0.458c-0.057,0.218-5.64,21.871,3.041,27.894
				c1.123,0.779,2.395,0.998,3.889,0.667c8.959-1.988,21.35-23.103,21.474-23.316c0.105-0.179,0.334-0.238,0.513-0.135
				c0.18,0.105,0.24,0.334,0.136,0.513c-0.514,0.881-12.682,21.611-21.959,23.67C392.941,234.74,392.461,234.795,391.997,234.795z"
				/>
		</g>
		<g>
			<path style="fill:#222A40;" d="M391.187,248.325c-0.908,0.001-1.814-0.181-2.713-0.577c-10.259-4.523-7.536-30.883-7.415-32.003
				c0.022-0.206,0.191-0.359,0.413-0.333c0.206,0.022,0.355,0.208,0.333,0.413c-0.029,0.269-2.788,26.934,6.972,31.237
				c9.671,4.262,21.185-19.771,21.3-20.014c0.088-0.186,0.313-0.266,0.499-0.179c0.188,0.089,0.267,0.311,0.179,0.499
				C410.314,228.301,400.723,248.323,391.187,248.325z"/>
		</g>
		<g>
			<path style="fill:#222A40;" d="M367.422,254.939c-0.033,0-0.066-0.004-0.1-0.014c-0.2-0.055-0.317-0.262-0.262-0.461
				l6.414-23.261c0.055-0.199,0.263-0.32,0.461-0.262c0.2,0.055,0.317,0.262,0.262,0.461l-6.414,23.261
				C367.737,254.829,367.587,254.939,367.422,254.939z"/>
		</g>
		<g>
			<path style="fill:#222A40;" d="M400.305,304.336c-0.173,0-0.328-0.12-0.366-0.296c-0.044-0.202,0.084-0.401,0.287-0.445
				c0.099-0.022,9.969-2.233,15.134-9.397c0.121-0.167,0.356-0.204,0.523-0.084c0.168,0.121,0.206,0.355,0.084,0.523
				c-5.336,7.4-15.48,9.668-15.583,9.69C400.358,304.333,400.332,304.336,400.305,304.336z"/>
		</g>
		<g>
			<path style="fill:#222A40;" d="M435.003,152.234c-0.098,0-0.195-0.038-0.27-0.114c-0.144-0.148-0.141-0.386,0.009-0.53
				c3.038-2.943,4.924-5.443,6.117-8.107c1.497-3.345,1.705-6.91,0.569-9.78c-1.274-3.222-4.312-5.441-7.42-5.441
				c-0.045,0-0.089,0.001-0.133,0.002c-1.737,0.035-3.424,0.729-5.055,1.399c-0.468,0.192-0.935,0.384-1.403,0.562
				c-2.887,1.096-5.246,1.156-7.005,0.172c-0.602-0.336-1.115-0.784-1.612-1.218c-0.433-0.378-0.842-0.735-1.301-1.021
				c-1.536-0.957-3.157-0.787-4.246-0.475c-2.014,0.575-3.833,2.085-4.747,3.943c-1.773,3.602-1.011,7.999-0.282,10.993
				c0.049,0.202-0.074,0.404-0.275,0.453c-0.206,0.046-0.404-0.074-0.453-0.275c-0.756-3.107-1.544-7.681,0.337-11.502
				c1.006-2.042,3.004-3.703,5.216-4.334c1.744-0.498,3.469-0.3,4.848,0.56c0.511,0.318,0.962,0.712,1.397,1.093
				c0.49,0.427,0.952,0.831,1.484,1.129c1.556,0.869,3.699,0.797,6.374-0.219c0.462-0.175,0.923-0.365,1.384-0.555
				c1.694-0.697,3.447-1.417,5.324-1.455c3.451-0.06,6.86,2.361,8.266,5.914c1.209,3.057,0.997,6.833-0.583,10.362
				c-1.598,3.571-4.349,6.47-6.279,8.34C435.191,152.199,435.096,152.234,435.003,152.234z"/>
		</g>
		<g>
			<path style="fill:#222A40;" d="M380.424,154.491c-0.08,0-0.16-0.025-0.228-0.077c-1.359-1.04-2.899-2.22-3.887-3.811
				c-1.117-1.801-1.266-3.941-0.379-5.453c0.947-1.613,2.837-2.334,4.56-2.827c5.04-1.44,10.311-2.055,15.407-2.65
				c0.23-0.024,0.393,0.124,0.416,0.329c0.024,0.206-0.123,0.392-0.328,0.416c-5.067,0.591-10.308,1.203-15.289,2.626
				c-1.58,0.452-3.306,1.101-4.119,2.486c-0.747,1.274-0.603,3.11,0.369,4.678c0.915,1.475,2.334,2.561,3.705,3.611
				c0.165,0.126,0.196,0.361,0.07,0.526C380.647,154.44,380.536,154.491,380.424,154.491z"/>
		</g>
		<g>
			<path style="fill:#222A40;" d="M441.405,169.574c-0.146,0-0.284-0.085-0.345-0.228c-0.834-1.948-0.063-4.043,0.471-5.118
				c0.435-0.878,0.985-1.694,1.519-2.483c0.385-0.571,0.782-1.161,1.127-1.761c0.961-1.676,1.299-3.184,1.004-4.483
				c-0.327-1.432-1.453-2.74-3.347-3.886c-0.527-0.319-1.074-0.611-1.62-0.902c-1.091-0.582-2.219-1.184-3.191-2.006
				c-0.158-0.134-0.178-0.371-0.044-0.529c0.134-0.158,0.37-0.176,0.528-0.044c0.912,0.771,1.955,1.328,3.061,1.917
				c0.558,0.298,1.115,0.596,1.655,0.922c2.074,1.256,3.315,2.723,3.688,4.361c0.339,1.488-0.026,3.178-1.084,5.022
				c-0.357,0.624-0.764,1.226-1.156,1.808c-0.519,0.769-1.055,1.564-1.468,2.397c-0.477,0.96-1.168,2.819-0.453,4.49
				c0.081,0.19-0.007,0.411-0.197,0.492C441.505,169.564,441.455,169.574,441.405,169.574z"/>
		</g>
		<g>
			<path style="fill:#E8A03F;" d="M417.31,179.412c-0.361-0.872-1.762-0.404-1.397,0.476c0.595,1.438,1.253,2.955,1.19,4.544
				c-0.025,0.626-0.182,1.257-0.479,1.811c-0.248,0.463-0.764,1.153-1.34,1.186c-0.547,0.03-1.04-0.89-1.267-1.286
				c-0.353-0.617-0.586-1.326-0.706-2.025c-0.283-1.647-0.018-3.309,0.38-4.913c0.229-0.924-1.216-1.227-1.444-0.307
				c-0.726,2.93-0.937,6.402,1.108,8.884c0.45,0.546,0.973,1.048,1.713,1.113c0.77,0.068,1.462-0.339,2.009-0.844
				c0.984-0.91,1.426-2.262,1.493-3.57C418.661,182.712,417.974,181.014,417.31,179.412z"/>
		</g>
		<g>
			<rect x="345.369" y="223.602" style="fill:#6455E7;" width="38.554" height="57.628"/>
		</g>
		<g>
			
				<rect x="340.706" y="222.399" transform="matrix(0.9776 -0.2105 0.2105 0.9776 -44.8073 81.3881)" style="fill:#FFFFFF;" width="38.554" height="57.628"/>
		</g>
		<g>
			
				<rect x="337.576" y="221.95" transform="matrix(0.987 -0.1606 0.1606 0.987 -35.641 60.5665)" style="fill:#7F85FA;" width="38.554" height="57.628"/>
		</g>
		<g>
			<g>
				<path style="fill:#E07049;" d="M440.693,270.321c1.645,2.563,4.911,10.497,7.469,16.982c-0.908,0.394-2.075,0.641-3.457,0.767
					c-13.959,1.377-48.961-9.104-48.961-9.104s-5.503,1.155-10.312-0.673c-4.808-1.813-13.051-8.21-13.683-8.882
					c-0.632-0.687-0.474-2.75-0.474-2.75s-0.952-0.845-2.11-1.929c-1.173-1.083-1.307-2.849-1.307-2.849s-1.521-0.471-2.229-1.198
					c-0.709-0.741,0.066-2.369,0.066-2.369c-2.105-2.092,0.414-3.468,1.728-3.754c1.328-0.286,12.757-0.227,15.744,0.556
					c3.002,0.767,11.62,9.995,11.62,9.995s27.58,0.754,32.495,0.388C432.181,265.137,437.761,265.766,440.693,270.321z"/>
			</g>
			<g>
				<path style="fill:#222A40;" d="M375.508,259.791c-0.014,0-0.027-0.001-0.042-0.002l-9.813-1.1
					c-0.206-0.023-0.354-0.209-0.331-0.415c0.023-0.205,0.198-0.345,0.415-0.331l9.814,1.1c0.206,0.023,0.353,0.209,0.331,0.415
					C375.859,259.65,375.696,259.791,375.508,259.791z"/>
			</g>
			<g>
				<path style="fill:#222A40;" d="M375.735,263.612c-0.021,0-0.042-0.002-0.064-0.006l-7.878-1.354
					c-0.204-0.034-0.341-0.229-0.306-0.433c0.034-0.204,0.219-0.348,0.433-0.306l7.878,1.354c0.204,0.034,0.341,0.229,0.306,0.433
					C376.073,263.483,375.915,263.612,375.735,263.612z"/>
			</g>
			<g>
				<path style="fill:#222A40;" d="M375.97,267.57c-0.014,0-0.028-0.001-0.042-0.002l-4.696-0.534
					c-0.206-0.023-0.354-0.21-0.331-0.415c0.024-0.205,0.214-0.344,0.415-0.331l4.696,0.534c0.206,0.023,0.355,0.21,0.331,0.415
					C376.321,267.429,376.159,267.57,375.97,267.57z"/>
			</g>
		</g>
		<g>
			<g>
				<path style="fill:#E07049;" d="M341.769,255.196c0.31-1.667-1.328-2.921-1.328-2.921c0.797-1.859-0.62-3.084-0.62-3.084
					c1.328-1.106,0.354-3.865-1.387-5.326c-1.741-1.461-3.792-0.974-4.618,0c-0.812,0.974,1.239,3.836,1.239,3.836
					c-1.756,1.844,0,3.393,0,3.393s-0.236,0.841-0.162,2.302c0.004,0.076,0.025,0.154,0.049,0.232
					c-0.008,0.011-0.019,0.017-0.027,0.029c-0.35,0.527-0.505,1.146-0.546,1.77c-0.042,0.639,0.129,1.249,0.379,1.827
					c0.41,0.947,1.237,1.715,2.122,2.221c0.486,0.278,1.017,0.491,1.546,0.672c0.591,0.203,1.239,0.422,1.867,0.255
					c1.135-0.303,1.651-1.57,1.081-2.597c-0.091-0.164-0.223-0.316-0.35-0.468C341.433,257.106,341.556,256.343,341.769,255.196z"/>
			</g>
			<g>
				<path style="fill:#222A40;" d="M339.461,249.356c-0.024,0-0.05-0.003-0.076-0.008c-1.549-0.319-3.064-0.818-4.505-1.48
					c-0.188-0.087-0.27-0.309-0.184-0.498c0.087-0.186,0.311-0.269,0.498-0.184c1.388,0.639,2.849,1.119,4.343,1.428
					c0.202,0.042,0.333,0.24,0.291,0.443C339.792,249.234,339.635,249.356,339.461,249.356z"/>
			</g>
			<g>
				<path style="fill:#222A40;" d="M340.584,253.14c-0.011,0-0.023-0.001-0.034-0.002c-1.978-0.183-3.932-0.807-5.65-1.804
					c-0.179-0.104-0.24-0.333-0.136-0.513c0.104-0.18,0.334-0.238,0.513-0.136c1.625,0.942,3.473,1.532,5.342,1.706
					c0.207,0.019,0.358,0.201,0.339,0.407C340.939,252.994,340.776,253.14,340.584,253.14z"/>
			</g>
			<g>
				<path style="fill:#222A40;" d="M340.689,258.021c-0.021,0-0.042-0.002-0.064-0.005c-2.379-0.406-4.577-1.861-5.882-3.892
					c-0.112-0.175-0.061-0.406,0.112-0.519c0.177-0.111,0.407-0.062,0.519,0.112c1.192,1.857,3.203,3.186,5.378,3.558
					c0.204,0.035,0.341,0.229,0.307,0.434C341.028,257.892,340.869,258.021,340.689,258.021z"/>
			</g>
		</g>
	</g>
	<g>
		<g>
			<path style="fill:#A0A8FB;" d="M130.805,359.453h-63.87c3.511-10.278,1.933-23.491,1.933-23.491h-10.77
				c-8.941,0-15.713-7.684-14.282-16.176c0.723-4.253,1.21-9.499,1.21-15.878c0-13.681-3.526-24.838-6.58-31.94
				c-2.228-5.174-7.524-8.52-13.352-8.52h63.87c5.828,0,11.125,3.346,13.352,8.52c3.054,7.103,6.58,18.26,6.58,31.94
				c0,6.38-0.487,11.625-1.21,15.878c-1.431,8.492,5.341,16.176,14.282,16.176h10.77
				C132.737,335.962,134.316,349.175,130.805,359.453z"/>
		</g>
		<g>
			<path style="fill:#222A40;" d="M66.934,359.453H36.511c0,0-5.193-16.402,0.826-26.383l-0.015-0.043
				c-0.59-1.616-19.874-53.829-19.461-61.244c0.398-7.542,5.4-8.336,5.4-8.336h1.83c5.828,0,11.125,3.346,13.352,8.52
				c3.054,7.103,6.58,18.26,6.58,31.94c0,6.38-0.487,11.625-1.21,15.878c-1.431,8.492,5.341,16.176,14.282,16.176h10.77
				C68.867,335.962,70.446,349.175,66.934,359.453z"/>
		</g>
		<g>
			<path style="fill:#222A40;" d="M130.098,336.337H68.867c-0.207,0-0.375-0.168-0.375-0.375c0-0.207,0.168-0.375,0.375-0.375
				h61.231c0.207,0,0.375,0.168,0.375,0.375C130.473,336.169,130.305,336.337,130.098,336.337z"/>
		</g>
		<g>
			<polygon style="fill:#222A40;" points="39.798,359.447 26.878,447.953 31.39,447.953 49.437,359.447 			"/>
		</g>
		<g>
			<polygon style="fill:#222A40;" points="128.457,359.447 141.377,447.953 136.865,447.953 118.819,359.447 			"/>
		</g>
		<g>
			<polygon style="fill:#222A40;" points="65.849,359.447 78.768,447.953 74.257,447.953 56.21,359.447 			"/>
		</g>
		<g>
			<polygon style="fill:#222A40;" points="104.191,359.447 91.272,447.953 95.783,447.953 113.83,359.447 			"/>
		</g>
	</g>
	<g>
		<g>
			<path style="fill:#6455E7;" d="M187.859,279.114H155.4l-21.01-9.738l-5.725-9.074v9.162l0.029,0.369l-3.113,0.251
				c0,0-0.103,10.387,1.505,14.075l3.393-0.811l1.874,8.13c0,0-1.372,1.461-3.393,3.275c-3.172,2.818-7.982,6.492-11.774,6.802
				c-6.226,0.502-16.274-4.19-16.274-4.19s-19.962,5.666-23.651,3.821c-1.903-0.959-4.53-3.275-6.684-5.71
				c-2.051-2.257-3.689-4.618-3.984-6.049c-0.62-2.936,3.689-21.866,3.689-21.866l-2.051-22.972c0,0-2.671-21.467,1.092-26.395
				c3.762-4.913,16.067-10.254,16.067-10.254l1.534-4.559l1.225-3.644c1.136-0.87,3.452-1.992,3.452-1.992l-0.546,2.508
				c0,0,10.579,6.108,14.061,6.256c3.482,0.162,5.636-1.638,5.636-1.638l-0.28-1.992l0.28-0.044l2.257,1.003l0.929,4.102
				c0,0,12.91,2.11,17.734,5.238c4.81,3.128,6.212,10.49,7.923,16.097c1.402,4.574,7.318,24.565,9.472,31.81L187.859,279.114z"/>
		</g>
		<g>
			<path style="fill:#E8A03F;" d="M131.218,413.14c-0.089-2.169-0.236-6.698-0.413-12.128c-0.162-5.489-0.354-11.907-0.472-17.72
				c-0.162-7.466-0.221-13.928-0.03-16.2c0.546-6.507,5.061-17.646,5.061-17.646s-47.272-0.915-51.27-3.895
				c-3.998-2.966-17.321-12.821-18.457-19.475c-1.121-6.669,4.928-30.585,4.928-30.585l0.015-0.015
				c2.154,2.434,4.78,4.751,6.684,5.71c3.688,1.844,23.651-3.821,23.651-3.821s10.047,4.692,16.274,4.19
				c3.792-0.31,8.602-3.984,11.774-6.802v8.07c0,0,33.816,17.911,38.67,21.467c4.854,3.556,7.451,7.525,7.657,15.448
				c0.206,7.938-19.446,48.438-19.446,48.438c-4.072,14.592-7.628,27.03-7.628,27.03c-7.923,4.249-16.952-0.679-16.952-0.679
				S131.247,414.025,131.218,413.14z"/>
		</g>
		<g>
			<path style="fill:#E48C59;" d="M134.39,269.376l8.351-0.664c0,0,5.68-1.992,9.797-3.202c1.667-0.502,3.084-0.856,3.747-0.9
				c2.287-0.133,9.428,2.198,9.428,2.198l7.318,4.647l1.564,1.564c-0.841,1.505-4.102,2.051-4.102,2.051l-4.707-0.753l-9.915,1.446
				c-3.039,4.19-11.553,2.933-11.553,2.933l-13.839,4.651l-3.393,0.812c-1.608-3.689-1.505-14.075-1.505-14.075l3.113-0.251
				L134.39,269.376z"/>
		</g>
		<g>
			<path style="fill:#FFFFFF;" d="M157.554,447.96h-21.32l-5.474-20.788v20.788h-4.913l0.457-25.775
				c0.059-3.025,2.39-6.064,4.957-7.657c0,0,9.03,4.928,16.952,0.679l1.697,21.674C149.911,436.879,157.362,443.445,157.554,447.96z
				"/>
		</g>
		<g>
			<path style="fill:#FFFFFF;" d="M131.218,413.14l-9.797,11.788c0,0,0.767,9.9-2.228,13.279l-15.3-14.857l10.549-18.723
				l-14.474,14.916l-3.526-3.423l18.28-18.177c2.139-2.139,5.931-2.685,8.897-2.036l7.185,5.105
				C130.982,406.442,131.129,410.971,131.218,413.14z"/>
		</g>
		<g>
			<path style="fill:#E48C59;" d="M93.521,188.967c-1.269-0.118-2.523-0.487-3.615-1.121c-1.918-1.107-3.423-2.921-4.116-5.031
				c-0.472-1.446-0.561-3.039-0.103-4.485c0.472-1.461,1.505-2.759,2.892-3.379c0.62-0.266,1.298-0.413,1.962-0.398
				c0,0,7.348-1.785,10.785-9.339c3.423-7.554,9.59-12.379,16.864-10.195c1.962,2.213,3.364,4.987,3.939,8.085h0.015
				c0,0,4.102,15.89,4.146,20.744c0.029,4.869-5.326,14.149-6.875,15.89c-1.549,1.741-5.297,1.8-8.041,1.564
				c-0.251-0.015-0.649-0.074-1.151-0.162c-2.966-0.561-9.664-2.626-13.5-8.971c-0.59-0.959-1.106-2.036-1.534-3.216
				C94.628,189.011,94.067,189.011,93.521,188.967z"/>
		</g>
		<g>
			<path style="fill:#222A40;" d="M110.473,202.88l0.28,1.992c0,0-2.154,1.8-5.636,1.638c-7.436-2.671-8.395-14.341-8.395-14.341
				c3.836,6.344,10.534,8.41,13.5,8.971L110.473,202.88z"/>
		</g>
		<g>
			<path style="fill:#E48C59;" d="M96.723,192.168c0,0,0.959,11.671,8.395,14.341c-3.482-0.148-14.061-6.256-14.061-6.256
				l0.546-2.508l1.918-8.779c0.546,0.044,1.106,0.044,1.667-0.015C95.616,190.132,96.133,191.209,96.723,192.168z"/>
		</g>
		<g>
			<path style="fill:#222A40;" d="M124.387,154.486c-0.044,3.91-2.257,8.616-2.257,8.616c-0.575-3.098-1.977-5.872-3.939-8.085
				c-7.274-2.184-13.441,2.641-16.864,10.195c-3.438,7.554-10.785,9.339-10.785,9.339c-0.664-0.015-1.343,0.133-1.962,0.398
				c-1.387,0.62-2.42,1.918-2.892,3.379c-0.457,1.446-0.369,3.039,0.103,4.485c0.693,2.11,2.198,3.925,4.116,5.031
				c1.092,0.634,2.346,1.003,3.615,1.121l-1.918,8.779c0,0-2.316,1.121-3.452,1.992l-1.225,3.644
				c-1.239-0.148-2.464-0.384-3.703-0.236c-1.416,0.177-2.877,1.077-3.113,2.479c-2.346-1.313-4.102-3.659-4.706-6.3
				c-0.856,1.549-0.502,3.644,0.811,4.825c-2.213-0.502-3.866-2.508-4.47-4.692c-0.605-2.184-0.325-4.515,0.177-6.728
				c0.502-2.213,1.225-4.382,1.52-6.625c0.546-4.072-0.34-8.159-0.959-12.216c-0.634-4.043-0.959-8.321,0.605-12.113
				c1.195-2.907,3.511-5.341,6.359-6.698c2.803-1.343,6.138-1.608,9.133-0.723c5.533-5.961,14.193-9.059,18.797-7.923
				C113.011,147.803,124.446,150.577,124.387,154.486z"/>
		</g>
		<g>
			<g>
				<path style="fill:#E07045;" d="M114.611,174.544c0,0-0.851,2.575-0.414,5.54c0.436,2.965,2.689,4.592,3.797,4.294
					c1.108-0.298,3.01-1.863,2.621-3.378c0,0-0.585-0.985-1.569-1.705C118.062,178.576,114.611,174.544,114.611,174.544z"/>
			</g>
			<g>
				<path style="fill:#222A40;" d="M116.714,185.418c-0.146,0-0.284-0.085-0.345-0.227c-0.082-0.191,0.007-0.411,0.197-0.493
					c1.414-0.606,2.632-1.532,3.524-2.678c0.358-0.461,0.264-1.079-0.229-1.502c-2.338-2.007-4.433-4.236-6.227-6.626
					c-0.125-0.165-0.091-0.4,0.075-0.525c0.166-0.124,0.401-0.09,0.525,0.075c1.762,2.346,3.819,4.535,6.116,6.506
					c0.799,0.686,0.939,1.751,0.332,2.532c-0.969,1.246-2.29,2.251-3.82,2.907C116.813,185.408,116.763,185.418,116.714,185.418z"/>
			</g>
			<g>
				<path style="fill:#222A40;" d="M107.816,174.618c0.27,1.395-0.496,2.717-1.71,2.952c-1.214,0.235-2.417-0.706-2.687-2.102
					c-0.27-1.396,0.496-2.717,1.71-2.952C106.343,172.281,107.546,173.222,107.816,174.618z"/>
			</g>
			<g>
				<path style="fill:#222A40;" d="M121.649,171.944c0.27,1.395-0.496,2.717-1.71,2.952s-2.417-0.706-2.687-2.102
					c-0.27-1.395,0.496-2.717,1.71-2.952C120.176,169.607,121.379,170.548,121.649,171.944z"/>
			</g>
			<g>
				<path style="fill:#222A40;" d="M104.691,167.5c-1.497,0.422-2.861,1.086-4.118,2.001c-0.227,0.165-0.378,0.526-0.399,0.796
					c-0.023,0.292,0.083,0.655,0.29,0.87c0.207,0.217,0.487,0.388,0.795,0.399c0.334,0.011,0.601-0.093,0.87-0.289
					c0.068-0.049,0.137-0.096,0.205-0.144c0.776-0.506,1.608-0.913,2.483-1.217c0.107-0.033,0.213-0.068,0.321-0.098
					c0.307-0.087,0.57-0.226,0.754-0.498c0.162-0.24,0.25-0.599,0.181-0.885C105.935,167.855,105.327,167.32,104.691,167.5z"/>
			</g>
			<g>
				<path style="fill:#222A40;" d="M116.134,165.288c1.547-0.166,3.06-0.058,4.567,0.322c0.272,0.069,0.547,0.348,0.667,0.59
					c0.13,0.263,0.167,0.639,0.056,0.916c-0.112,0.278-0.307,0.542-0.59,0.666c-0.305,0.135-0.593,0.137-0.916,0.056
					c-0.081-0.021-0.163-0.038-0.244-0.057c-0.908-0.181-1.833-0.248-2.758-0.204c-0.111,0.009-0.223,0.017-0.334,0.029
					c-0.317,0.034-0.613,0.003-0.885-0.181c-0.24-0.162-0.455-0.463-0.498-0.754C115.112,166.081,115.477,165.359,116.134,165.288z"
					/>
			</g>
			<g>
				<path style="fill:#FFFFFF;" d="M120.896,189.251c-0.511,1.632-2.012,4.672-6.125,4.775c-3.751,0.109-5.299-3.078-5.837-4.777
					c-0.176-0.522,0.218-1.049,0.759-1.048l10.437,0.041C120.671,188.242,121.056,188.754,120.896,189.251z"/>
			</g>
			<g>
				<path style="fill:#222A40;" d="M93.959,187.044c-0.163,0-0.313-0.106-0.36-0.27c-0.836-2.886-2.935-5.42-5.614-6.778
					c-0.185-0.094-0.259-0.319-0.165-0.504c0.094-0.184,0.318-0.259,0.504-0.165c2.861,1.451,5.103,4.156,5.996,7.238
					c0.058,0.199-0.057,0.407-0.256,0.465C94.029,187.039,93.993,187.044,93.959,187.044z"/>
			</g>
		</g>
		<g>
			<path style="fill:#E07045;" d="M103.372,180.674c-4.747,0-4.755,7.377,0,7.377C108.118,188.051,108.126,180.674,103.372,180.674z
				"/>
		</g>
		<g>
			<polygon style="fill:#E8A03F;" points="123.619,395.907 130.333,383.293 130.805,401.012 			"/>
		</g>
		<g>
			<path style="fill:#222A40;" d="M100.979,165.948c-1.093,0-2.147-0.162-3.131-0.492c-0.196-0.066-0.302-0.278-0.236-0.475
				c0.066-0.196,0.278-0.301,0.475-0.236c3.297,1.106,7.463,0.165,11.147-2.514c2.276-1.655,4.241-3.771,6.141-5.817
				c0.826-0.889,1.679-1.808,2.55-2.681c0.146-0.147,0.384-0.147,0.53-0.001c0.147,0.146,0.147,0.384,0.001,0.53
				c-0.862,0.864-1.71,1.778-2.531,2.662c-1.924,2.072-3.914,4.215-6.249,5.913C106.878,164.872,103.8,165.948,100.979,165.948z"/>
		</g>
		<g>
			<path style="fill:#222A40;" d="M72.797,199.011c-0.101,0-0.201-0.04-0.274-0.12c-1.412-1.517-1.614-3.687-1.535-5.24
				c0.045-0.889,0.178-1.775,0.307-2.632c0.13-0.866,0.264-1.761,0.303-2.64c0.136-3.042-0.839-6.043-1.783-8.946
				c-0.789-2.426-1.604-4.936-1.805-7.516c-0.42-5.399,2.097-11.003,6.411-14.277c4.313-3.274,10.389-4.189,15.475-2.333
				c0.195,0.071,0.295,0.286,0.224,0.48c-0.07,0.195-0.289,0.294-0.48,0.224c-4.854-1.772-10.649-0.897-14.765,2.226
				c-4.116,3.123-6.517,8.47-6.116,13.622c0.193,2.491,0.995,4.957,1.771,7.342c0.964,2.966,1.962,6.033,1.819,9.211
				c-0.041,0.918-0.178,1.833-0.311,2.717c-0.126,0.839-0.256,1.708-0.299,2.559c-0.072,1.409,0.102,3.366,1.335,4.691
				c0.141,0.151,0.133,0.389-0.019,0.53C72.98,198.978,72.888,199.011,72.797,199.011z"/>
		</g>
		<g>
			<path style="fill:#222A40;" d="M95.059,212.58c-0.017,0-0.034-0.001-0.051-0.003c-3.598-0.493-7.104-2.059-9.871-4.409
				c-0.158-0.134-0.177-0.371-0.043-0.528c0.135-0.157,0.372-0.176,0.528-0.043c2.66,2.259,6.029,3.764,9.487,4.237
				c0.205,0.028,0.349,0.217,0.321,0.422C95.405,212.443,95.244,212.58,95.059,212.58z"/>
		</g>
		<g>
			<path style="fill:#222A40;" d="M105.119,214.281c-0.073,0-0.146-0.001-0.219-0.002c-0.207-0.005-0.371-0.177-0.366-0.384
				c0.005-0.207,0.178-0.373,0.384-0.366c3.462,0.076,6.877-1.92,8.497-4.982c0.097-0.183,0.325-0.252,0.507-0.156
				c0.183,0.097,0.253,0.324,0.156,0.507C112.363,212.139,108.783,214.281,105.119,214.281z"/>
		</g>
		<g>
			<path style="fill:#222A40;" d="M128.665,260.678c-0.036,0-0.073-0.005-0.109-0.017c-0.198-0.06-0.31-0.27-0.25-0.468
				c0.046-0.149,4.546-15.027,3.11-19.631c-1.458-4.675-8.104-16.317-8.171-16.435c-0.103-0.18-0.041-0.409,0.14-0.512
				c0.18-0.103,0.409-0.04,0.512,0.14c0.275,0.48,6.753,11.831,8.235,16.584c1.504,4.822-2.919,19.452-3.108,20.072
				C128.975,260.573,128.826,260.678,128.665,260.678z"/>
		</g>
		<g>
			<path style="fill:#222A40;" d="M125.581,270.458c-0.182,0-0.341-0.133-0.37-0.317c-0.013-0.08-0.334-1.959-2.699-2.887
				c-2.012-0.788-13.661-0.663-19.539-0.486c-0.22,0.003-0.356-0.134-0.383-0.323l-4.874-35.067
				c-0.028-0.205,0.115-0.395,0.32-0.423c0.208-0.034,0.395,0.114,0.423,0.319l4.828,34.734c2.478-0.067,17.019-0.425,19.498,0.549
				c2.785,1.092,3.153,3.376,3.168,3.473c0.03,0.204-0.11,0.394-0.314,0.425C125.619,270.457,125.6,270.458,125.581,270.458z"/>
		</g>
		<g>
			<path style="fill:#222A40;" d="M120.128,290.209c-8.494,0-31.827-3.693-34.89-5.015c-2.875-1.24-6.898-9.575-11.958-24.773
				c-2.591-7.785-6.122-24.226-6.157-24.392c-0.043-0.202,0.085-0.401,0.288-0.444c0.202-0.047,0.402,0.085,0.445,0.288
				c0.035,0.164,3.557,16.566,6.136,24.313c6.214,18.666,9.707,23.528,11.543,24.32c4.094,1.766,34.222,6,37.063,4.72
				c2.987-1.349,4.119-5.131,4.13-5.169c0.058-0.199,0.264-0.311,0.465-0.256c0.199,0.059,0.313,0.267,0.255,0.465
				c-0.049,0.169-1.243,4.154-4.541,5.643C122.443,290.117,121.471,290.209,120.128,290.209z"/>
		</g>
		<g>
			<path style="fill:#222A40;" d="M165.787,274.694c-0.14,0-0.273-0.078-0.338-0.212c-0.09-0.186-0.012-0.41,0.174-0.501
				c0.85-0.41,1.13-0.795,1.109-1.018c-0.021-0.229-0.36-0.472-0.842-0.602c-1.227-0.332-8.695-1.348-8.77-1.357
				c-0.206-0.028-0.349-0.218-0.321-0.423c0.028-0.204,0.215-0.342,0.422-0.321c0.31,0.042,7.592,1.033,8.865,1.377
				c0.82,0.222,1.341,0.691,1.394,1.257c0.042,0.447-0.19,1.115-1.53,1.764C165.897,274.682,165.842,274.694,165.787,274.694z"/>
		</g>
		<g>
			<path style="fill:#222A40;" d="M173.031,271.831c-0.023,0-0.047-0.002-0.072-0.007l-14.903-2.876
				c-0.203-0.039-0.336-0.236-0.297-0.439c0.039-0.202,0.232-0.341,0.439-0.297l14.903,2.876c0.203,0.039,0.336,0.236,0.297,0.439
				C173.364,271.706,173.207,271.831,173.031,271.831z"/>
		</g>
		<g>
			<path style="fill:#222A40;" d="M92.295,311.533c-0.162,0-0.311-0.104-0.359-0.267c-0.059-0.198,0.053-0.407,0.252-0.467
				l22.825-6.858c0.2-0.06,0.408,0.054,0.467,0.251c0.06,0.199-0.053,0.408-0.251,0.468l-22.825,6.858
				C92.367,311.529,92.33,311.533,92.295,311.533z"/>
		</g>
		<g>
			<path style="fill:#222A40;" d="M154.731,392.527c-0.036,0-0.072-0.005-0.107-0.016c-0.198-0.06-0.311-0.269-0.252-0.467
				c0.126-0.42,12.55-42.055,13.02-48.367c0.491-6.597-1.394-11.289-6.302-15.688c-5.166-4.63-35.372-19.773-35.677-19.926
				c-0.185-0.093-0.26-0.317-0.167-0.503c0.093-0.184,0.317-0.26,0.503-0.167c1.247,0.624,30.601,15.341,35.842,20.037
				c5.101,4.571,7.06,9.446,6.549,16.303c-0.476,6.393-12.536,46.808-13.049,48.525
				C155.041,392.422,154.892,392.527,154.731,392.527z"/>
		</g>
		<g>
			<path style="fill:#222A40;" d="M130.804,401.387c-0.001,0-0.003,0-0.005,0c-0.207-0.003-0.373-0.173-0.37-0.38
				c0.002-0.195,0.242-19.648-0.619-28.143c-0.872-8.607,4.957-22.954,5.206-23.561c0.079-0.191,0.299-0.284,0.489-0.204
				c0.192,0.078,0.283,0.297,0.205,0.489c-0.061,0.147-6.007,14.779-5.154,23.199c0.865,8.537,0.625,28.032,0.623,28.228
				C131.177,401.222,131.01,401.387,130.804,401.387z"/>
		</g>
		<g>
			<path style="fill:#222A40;" d="M136.594,348.593c-0.086,0-0.173-0.029-0.244-0.09c-0.157-0.135-0.176-0.371-0.042-0.529
				l7.246-8.477c0.135-0.155,0.372-0.175,0.529-0.041c0.157,0.135,0.176,0.371,0.041,0.529l-7.246,8.477
				C136.805,348.548,136.699,348.593,136.594,348.593z"/>
		</g>
		<g>
			<path style="fill:#222A40;" d="M135.364,346.952c-0.027,0-0.055-0.003-0.083-0.009c-0.202-0.046-0.329-0.246-0.283-0.448
				l1.23-5.469c0.045-0.203,0.245-0.327,0.448-0.284c0.202,0.046,0.329,0.246,0.283,0.448l-1.23,5.469
				C135.69,346.834,135.535,346.952,135.364,346.952z"/>
		</g>
		<g>
			<path style="fill:#E8A03F;" d="M87.898,154.535c-1.775,1.24-3.165,2.928-3.947,4.955c-0.892,2.312-0.553,4.652-0.042,7.008
				c0.201,0.927,1.624,0.535,1.423-0.392c-0.445-2.054-0.755-4.041-0.017-6.066c0.622-1.708,1.846-3.195,3.329-4.231
				C89.415,155.269,88.679,153.99,87.898,154.535z"/>
		</g>
	</g>
	<g>
		<g>
			<rect x="145.387" y="276.314" style="fill:#858CB6;" width="90.824" height="2.807"/>
		</g>
		<g>
			<polygon style="fill:#858CB6;" points="243.191,224.995 172.797,224.995 165.816,276.591 236.211,276.591 			"/>
		</g>
		<g>
			<path style="fill:#222A40;" d="M236.211,276.966h-70.395c-0.207,0-0.375-0.168-0.375-0.375c0-0.207,0.168-0.375,0.375-0.375
				h70.395c0.207,0,0.375,0.168,0.375,0.375C236.586,276.798,236.418,276.966,236.211,276.966z"/>
		</g>
	</g>
	<g>
		<g>
			<path style="fill:#A0A8FB;" d="M341.419,203.927l-0.118-0.162c-1.107,1.107-3.143,0.664-4.131-0.561
				c-1.003-1.21-1.151-2.906-1.033-4.47c0.472-5.961,4.5-11.184,9.428-14.577c4.928-3.393,10.726-5.252,16.436-7.052
				c-3.172,3.836-2.847,9.354-3.703,14.252c-0.9,5.134-3.275,10.003-6.772,13.869c-1.092,1.195-2.331,2.331-3.821,2.98
				c-1.505,0.649-3.305,0.738-4.707-0.089C341.581,207.291,340.77,205.417,341.419,203.927z"/>
		</g>
		<g>
			<path style="fill:#A0A8FB;" d="M370.145,221.588c-2.287-1.225-5.046-1.549-7.569-0.915c-2.006,0.502-3.821,1.593-5.606,2.685
				c-1.771,1.077-3.571,2.184-5.577,2.744c-1.992,0.561-4.279,0.487-6.005-0.649c-1.697-1.121-2.656-3.438-1.844-5.297
				c-1.461-0.28-2.302-2.036-1.992-3.497c0.31-1.475,1.431-2.641,2.611-3.541c4.264-3.246,10.136-4.249,15.226-2.582
				C364.465,212.189,368.626,216.453,370.145,221.588z"/>
		</g>
		<g>
			<path style="fill:#A0A8FB;" d="M331.903,184.349c-1.505,1.652-3.556,2.848-5.784,3.069c-2.228,0.221-4.574-0.59-6.005-2.302
				c-1.579-1.889-1.859-4.544-1.667-6.993c0.723-9.236,7.171-17.321,7.834-26.528c4.721,2.302,9.059,5.444,12.379,9.516
				c3.423,4.22,5.695,9.472,5.961,14.902c0.118,2.39-0.177,4.869-1.269,7.008c-1.092,2.124-3.098,3.88-5.459,4.293
				C335.532,187.712,332.862,186.547,331.903,184.349z"/>
		</g>
		<g>
			<path style="fill:#A0A8FB;" d="M317.768,223.417c0.31,1.475-0.516,3.231-1.977,3.497c0.797,1.859-0.147,4.19-1.844,5.297
				c-1.741,1.151-4.013,1.21-6.02,0.649c-2.007-0.546-3.807-1.652-5.577-2.744c-1.77-1.077-3.585-2.169-5.606-2.685
				c-2.523-0.634-5.267-0.295-7.569,0.915c1.52-5.12,5.68-9.384,10.771-11.051c5.09-1.652,10.962-0.664,15.211,2.582
				C316.352,220.791,317.473,221.957,317.768,223.417z"/>
		</g>
		<g>
			<path style="fill:#A0A8FB;" d="M323.788,197.214c0.59,1.49,1.062,3.069,1.003,4.662c-0.044,1.608-0.694,3.246-1.977,4.205
				c-1.284,0.944-3.261,1.018-4.426-0.074c0.487,2.951-1.269,6.123-4.028,7.274c-2.759,1.136-6.256,0.148-7.997-2.287
				c-1.461-2.051-1.652-4.721-1.785-7.244c-0.28-4.603-0.576-9.221-1.594-13.721c-0.9-4.072-2.42-8.056-4.884-11.434
				c5.444,0.31,10.8,2.184,15.27,5.341C318.034,187.226,321.708,191.903,323.788,197.214z"/>
		</g>
		<g>
			<path style="fill:#222A40;" d="M345.064,280.236c-0.041,0.011-0.078,0.022-0.12,0.03c-15.87,4.169-28.672,0.144-29.2-0.025
				c-0.014-0.003-0.018-0.005-0.018-0.005s-5.439-23.692-5.292-26.609c0.147-2.914,5.292-6.837,5.292-6.837l-2.733-4.225h34.804
				l-2.733,4.225c0,0,5.149,3.923,5.296,6.837C350.508,256.544,345.064,280.236,345.064,280.236z"/>
		</g>
		<g>
			<path style="fill:#222A40;" d="M328.848,253.282c-0.001,0-0.002,0-0.003,0c-0.189-0.002-0.348-0.144-0.369-0.332
				c-1.345-11.577-2.735-23.55-5.953-34.958c-3.604-12.779-9.125-23.197-16.405-30.966c-0.142-0.151-0.134-0.388,0.017-0.53
				c0.15-0.142,0.39-0.135,0.53,0.017c7.364,7.857,12.942,18.38,16.581,31.275c2.96,10.497,4.379,21.443,5.631,32.123
				c1.384-10.047,3.067-20.575,6.065-30.767c3.596-12.231,8.746-22.53,15.309-30.613c0.13-0.161,0.366-0.186,0.527-0.055
				c0.161,0.13,0.186,0.367,0.055,0.527c-6.499,8.005-11.604,18.217-15.172,30.352c-3.276,11.142-4.978,22.708-6.44,33.601
				C329.195,253.144,329.036,253.282,328.848,253.282z"/>
		</g>
		<g>
			<path style="fill:#222A40;" d="M332.246,232.095c-0.069,0-0.139-0.019-0.201-0.059c-0.175-0.111-0.226-0.343-0.115-0.518
				c5.676-8.925,14.859-15.123,24.565-16.58c0.212-0.034,0.395,0.111,0.427,0.315c0.03,0.205-0.11,0.395-0.315,0.426
				c-9.495,1.426-18.483,7.497-24.044,16.241C332.491,232.033,332.37,232.095,332.246,232.095z"/>
		</g>
		<g>
			<path style="fill:#222A40;" d="M328.678,253.667c-0.007,0-0.015,0-0.022-0.001c-0.206-0.012-0.364-0.189-0.352-0.396l1.81-30.827
				c1.222-20.813,2.485-42.336-1.354-63.22c-0.037-0.204,0.098-0.399,0.302-0.437c0.198-0.04,0.399,0.098,0.436,0.301
				c3.855,20.974,2.589,42.542,1.364,63.4l-1.811,30.828C329.041,253.514,328.876,253.667,328.678,253.667z"/>
		</g>
		<g>
			<path style="fill:#222A40;" d="M327.079,238.861c-0.124,0-0.245-0.062-0.316-0.174c-5.561-8.744-14.55-14.816-24.044-16.241
				c-0.205-0.031-0.346-0.222-0.315-0.426c0.031-0.204,0.216-0.348,0.427-0.315c9.705,1.457,18.889,7.655,24.565,16.58
				c0.111,0.175,0.06,0.406-0.115,0.518C327.218,238.842,327.148,238.861,327.079,238.861z"/>
		</g>
	</g>
	<g>
		<g>
			<rect x="130.098" y="279.121" style="fill:#A0A8FB;" width="255.302" height="8.149"/>
		</g>
		<g>
			<polygon style="fill:#222A40;" points="132.731,287.27 100.171,447.96 103.738,447.96 143.84,287.208 			"/>
		</g>
		<g>
			<polygon style="fill:#222A40;" points="383.485,287.27 416.045,447.96 412.477,447.96 372.376,287.208 			"/>
		</g>
		<g>
			<rect x="130.098" y="287.27" style="fill:#222A40;" width="255.302" height="3.41"/>
		</g>
	</g>
</g>
</svg>
